%TF.GenerationSoftware,KiCad,Pcbnew,7.0.9*%
%TF.CreationDate,2023-11-22T21:43:23-08:00*%
%TF.ProjectId,esp12-temp-sensore,65737031-322d-4746-956d-702d73656e73,rev?*%
%TF.SameCoordinates,Original*%
%TF.FileFunction,Copper,L1,Top*%
%TF.FilePolarity,Positive*%
%FSLAX46Y46*%
G04 Gerber Fmt 4.6, Leading zero omitted, Abs format (unit mm)*
G04 Created by KiCad (PCBNEW 7.0.9) date 2023-11-22 21:43:23*
%MOMM*%
%LPD*%
G01*
G04 APERTURE LIST*
G04 Aperture macros list*
%AMRoundRect*
0 Rectangle with rounded corners*
0 $1 Rounding radius*
0 $2 $3 $4 $5 $6 $7 $8 $9 X,Y pos of 4 corners*
0 Add a 4 corners polygon primitive as box body*
4,1,4,$2,$3,$4,$5,$6,$7,$8,$9,$2,$3,0*
0 Add four circle primitives for the rounded corners*
1,1,$1+$1,$2,$3*
1,1,$1+$1,$4,$5*
1,1,$1+$1,$6,$7*
1,1,$1+$1,$8,$9*
0 Add four rect primitives between the rounded corners*
20,1,$1+$1,$2,$3,$4,$5,0*
20,1,$1+$1,$4,$5,$6,$7,0*
20,1,$1+$1,$6,$7,$8,$9,0*
20,1,$1+$1,$8,$9,$2,$3,0*%
G04 Aperture macros list end*
%TA.AperFunction,SMDPad,CuDef*%
%ADD10RoundRect,0.250000X-0.262500X-0.450000X0.262500X-0.450000X0.262500X0.450000X-0.262500X0.450000X0*%
%TD*%
%TA.AperFunction,SMDPad,CuDef*%
%ADD11C,1.500000*%
%TD*%
%TA.AperFunction,SMDPad,CuDef*%
%ADD12R,2.500000X2.500000*%
%TD*%
%TA.AperFunction,SMDPad,CuDef*%
%ADD13RoundRect,0.250000X-0.250000X-0.475000X0.250000X-0.475000X0.250000X0.475000X-0.250000X0.475000X0*%
%TD*%
%TA.AperFunction,SMDPad,CuDef*%
%ADD14RoundRect,0.250000X-0.325000X-0.650000X0.325000X-0.650000X0.325000X0.650000X-0.325000X0.650000X0*%
%TD*%
%TA.AperFunction,SMDPad,CuDef*%
%ADD15R,1.000000X2.500000*%
%TD*%
%TA.AperFunction,SMDPad,CuDef*%
%ADD16R,1.800000X1.000000*%
%TD*%
%TA.AperFunction,ComponentPad*%
%ADD17R,2.200000X2.200000*%
%TD*%
%TA.AperFunction,ComponentPad*%
%ADD18O,2.200000X2.200000*%
%TD*%
%TA.AperFunction,ComponentPad*%
%ADD19C,1.400000*%
%TD*%
%TA.AperFunction,ComponentPad*%
%ADD20R,1.500000X1.500000*%
%TD*%
%TA.AperFunction,ComponentPad*%
%ADD21C,1.500000*%
%TD*%
%TA.AperFunction,SMDPad,CuDef*%
%ADD22RoundRect,0.250000X0.262500X0.450000X-0.262500X0.450000X-0.262500X-0.450000X0.262500X-0.450000X0*%
%TD*%
%TA.AperFunction,ViaPad*%
%ADD23C,0.800000*%
%TD*%
%TA.AperFunction,Conductor*%
%ADD24C,0.250000*%
%TD*%
G04 APERTURE END LIST*
D10*
%TO.P,R7,1*%
%TO.N,VDC*%
X79097500Y-39370000D03*
%TO.P,R7,2*%
%TO.N,/HI_BOOT*%
X80922500Y-39370000D03*
%TD*%
D11*
%TO.P,T2,1,1*%
%TO.N,/FLASH*%
X71755000Y-31750000D03*
%TD*%
D12*
%TO.P,A1,1,IN+*%
%TO.N,unconnected-(A1-IN+-Pad1)*%
X21520000Y-28560000D03*
%TO.P,A1,2,IN-*%
%TO.N,unconnected-(A1-IN--Pad2)*%
X21520000Y-42560000D03*
%TO.P,A1,3,B+*%
%TO.N,+BATT*%
X44520000Y-31560000D03*
%TO.P,A1,4,B-*%
%TO.N,-BATT*%
X44520000Y-39560000D03*
%TO.P,A1,5,OUT+*%
%TO.N,/+BATT_PROT*%
X44520000Y-28560000D03*
%TO.P,A1,6,OUT-*%
%TO.N,GND*%
X44520000Y-42560000D03*
%TD*%
D13*
%TO.P,C1,1*%
%TO.N,VDC*%
X71440000Y-44450000D03*
%TO.P,C1,2*%
%TO.N,GND*%
X73340000Y-44450000D03*
%TD*%
D14*
%TO.P,C2,1*%
%TO.N,GND*%
X78535000Y-29210000D03*
%TO.P,C2,2*%
%TO.N,VDC*%
X81485000Y-29210000D03*
%TD*%
D10*
%TO.P,R6,1*%
%TO.N,VDC*%
X79097500Y-31750000D03*
%TO.P,R6,2*%
%TO.N,/EN*%
X80922500Y-31750000D03*
%TD*%
%TO.P,R3,1*%
%TO.N,/BATT_LVL*%
X66397500Y-29210000D03*
%TO.P,R3,2*%
%TO.N,GND*%
X68222500Y-29210000D03*
%TD*%
%TO.P,R5,1*%
%TO.N,VDC*%
X79097500Y-36830000D03*
%TO.P,R5,2*%
%TO.N,/FLASH*%
X80922500Y-36830000D03*
%TD*%
%TO.P,R4,1*%
%TO.N,VDC*%
X79097500Y-34290000D03*
%TO.P,R4,2*%
%TO.N,/RST*%
X80922500Y-34290000D03*
%TD*%
D15*
%TO.P,U2,1,~{RST}*%
%TO.N,/RST*%
X100020000Y-27960000D03*
%TO.P,U2,2,ADC*%
%TO.N,/BATT_LVL*%
X98020000Y-27960000D03*
%TO.P,U2,3,EN*%
%TO.N,/EN*%
X96020000Y-27960000D03*
%TO.P,U2,4,GPIO16*%
%TO.N,/RST*%
X94020000Y-27960000D03*
%TO.P,U2,5,GPIO14*%
%TO.N,unconnected-(U2-GPIO14-Pad5)*%
X92020000Y-27960000D03*
%TO.P,U2,6,GPIO12*%
%TO.N,unconnected-(U2-GPIO12-Pad6)*%
X90020000Y-27960000D03*
%TO.P,U2,7,GPIO13*%
%TO.N,unconnected-(U2-GPIO13-Pad7)*%
X88020000Y-27960000D03*
%TO.P,U2,8,VCC*%
%TO.N,VDC*%
X86020000Y-27960000D03*
D16*
%TO.P,U2,9,CS0*%
%TO.N,unconnected-(U2-CS0-Pad9)*%
X84520000Y-30560000D03*
%TO.P,U2,10,MISO*%
%TO.N,unconnected-(U2-MISO-Pad10)*%
X84520000Y-32560000D03*
%TO.P,U2,11,GPIO9*%
%TO.N,unconnected-(U2-GPIO9-Pad11)*%
X84520000Y-34560000D03*
%TO.P,U2,12,GPIO10*%
%TO.N,unconnected-(U2-GPIO10-Pad12)*%
X84520000Y-36560000D03*
%TO.P,U2,13,MOSI*%
%TO.N,unconnected-(U2-MOSI-Pad13)*%
X84520000Y-38560000D03*
%TO.P,U2,14,SCLK*%
%TO.N,unconnected-(U2-SCLK-Pad14)*%
X84520000Y-40560000D03*
D15*
%TO.P,U2,15,GND*%
%TO.N,GND*%
X86020000Y-43160000D03*
%TO.P,U2,16,GPIO15*%
%TO.N,/LOW_BOOT*%
X88020000Y-43160000D03*
%TO.P,U2,17,GPIO2*%
%TO.N,/HI_BOOT*%
X90020000Y-43160000D03*
%TO.P,U2,18,GPIO0*%
%TO.N,/FLASH*%
X92020000Y-43160000D03*
%TO.P,U2,19,GPIO4*%
%TO.N,/SENSOR*%
X94020000Y-43160000D03*
%TO.P,U2,20,GPIO5*%
%TO.N,unconnected-(U2-GPIO5-Pad20)*%
X96020000Y-43160000D03*
%TO.P,U2,21,GPIO3/RXD*%
%TO.N,/SERIAL_TX*%
X98020000Y-43160000D03*
%TO.P,U2,22,GPIO1/TXD*%
%TO.N,/SERIAL_RX*%
X100020000Y-43160000D03*
%TD*%
D11*
%TO.P,T4,1,1*%
%TO.N,/SERIAL_TX*%
X71755000Y-39370000D03*
%TD*%
D17*
%TO.P,D1,1,K*%
%TO.N,VDC*%
X58420000Y-27940000D03*
D18*
%TO.P,D1,2,A*%
%TO.N,/+BATT_PROT*%
X48260000Y-27940000D03*
%TD*%
D11*
%TO.P,T3,1,1*%
%TO.N,/SERIAL_RX*%
X71755000Y-35560000D03*
%TD*%
%TO.P,T1,1,1*%
%TO.N,/RST*%
X71755000Y-27940000D03*
%TD*%
D10*
%TO.P,R2,1*%
%TO.N,/+BATT_PROT*%
X66397500Y-26670000D03*
%TO.P,R2,2*%
%TO.N,/BATT_LVL*%
X68222500Y-26670000D03*
%TD*%
D19*
%TO.P,J1,1,1*%
%TO.N,+BATT*%
X47625000Y-34290000D03*
%TO.P,J1,2,2*%
%TO.N,-BATT*%
X47625000Y-36830000D03*
%TD*%
D20*
%TO.P,U1,1,VCC*%
%TO.N,VDC*%
X67310000Y-41910000D03*
D21*
%TO.P,U1,2,IO*%
%TO.N,/SENSOR*%
X67310000Y-39370000D03*
%TO.P,U1,3,NC*%
%TO.N,unconnected-(U1-NC-Pad3)*%
X67310000Y-36830000D03*
%TO.P,U1,4,GND*%
%TO.N,GND*%
X67310000Y-34290000D03*
%TD*%
D22*
%TO.P,R8,1*%
%TO.N,/LOW_BOOT*%
X80922500Y-41910000D03*
%TO.P,R8,2*%
%TO.N,GND*%
X79097500Y-41910000D03*
%TD*%
D10*
%TO.P,R1,1*%
%TO.N,VDC*%
X79097500Y-44450000D03*
%TO.P,R1,2*%
%TO.N,/SENSOR*%
X80922500Y-44450000D03*
%TD*%
D23*
%TO.N,GND*%
X91440000Y-36830000D03*
X27051000Y-41910000D03*
X53340000Y-27940000D03*
X74930000Y-44450000D03*
X82550000Y-43180000D03*
X41910000Y-41910000D03*
X89408000Y-39370000D03*
X96520000Y-39370000D03*
X86360000Y-34290000D03*
X57277000Y-42545000D03*
X27051000Y-30607000D03*
X96520000Y-36830000D03*
X93980000Y-34290000D03*
X74930000Y-29210000D03*
X88900000Y-34290000D03*
X41910000Y-30480000D03*
X98933000Y-36830000D03*
X27051000Y-35433000D03*
X96520000Y-31750000D03*
X50546000Y-42545000D03*
X41910000Y-35433000D03*
X34163000Y-41783000D03*
X50546000Y-35433000D03*
X34163000Y-30607000D03*
X93980000Y-36830000D03*
X34163000Y-35433000D03*
X63246000Y-31369000D03*
X91440000Y-34290000D03*
X88900000Y-31750000D03*
X57150000Y-35433000D03*
X91440000Y-31750000D03*
X83820000Y-43180000D03*
X76200000Y-30480000D03*
X86360000Y-31750000D03*
X96520000Y-34290000D03*
X93980000Y-39370000D03*
%TO.N,VDC*%
X77470000Y-34290000D03*
X77470000Y-44450000D03*
X77470000Y-39370000D03*
X77470000Y-36830000D03*
X82735000Y-27960000D03*
X77470000Y-31750000D03*
%TO.N,/RST*%
X80899000Y-34290000D03*
X94107000Y-27940000D03*
%TO.N,/SERIAL_RX*%
X82550000Y-38109500D03*
X99060000Y-39370000D03*
%TO.N,/SERIAL_TX*%
X97155000Y-41275000D03*
X82550000Y-40640000D03*
%TD*%
D24*
%TO.N,+BATT*%
X44895000Y-31560000D02*
X44520000Y-31560000D01*
X47625000Y-34290000D02*
X44895000Y-31560000D01*
%TO.N,-BATT*%
X44895000Y-39560000D02*
X44520000Y-39560000D01*
X47625000Y-36830000D02*
X44895000Y-39560000D01*
%TO.N,/+BATT_PROT*%
X47640000Y-28560000D02*
X48260000Y-27940000D01*
X49685000Y-26515000D02*
X66242500Y-26515000D01*
X44520000Y-28560000D02*
X47640000Y-28560000D01*
X66242500Y-26515000D02*
X66397500Y-26670000D01*
X48260000Y-27940000D02*
X49685000Y-26515000D01*
%TO.N,VDC*%
X79097500Y-36830000D02*
X77470000Y-36830000D01*
X86020000Y-27960000D02*
X82735000Y-27960000D01*
X81485000Y-29362500D02*
X81485000Y-29210000D01*
X68580000Y-44450000D02*
X67310000Y-43180000D01*
X79097500Y-44450000D02*
X77470000Y-44450000D01*
X79097500Y-39370000D02*
X77470000Y-39370000D01*
X67310000Y-43180000D02*
X67310000Y-41910000D01*
X79097500Y-31750000D02*
X81485000Y-29362500D01*
X79097500Y-34290000D02*
X77470000Y-34290000D01*
X71440000Y-44450000D02*
X68580000Y-44450000D01*
X82735000Y-27960000D02*
X81485000Y-29210000D01*
X79097500Y-31750000D02*
X77470000Y-31750000D01*
%TO.N,/SENSOR*%
X80922500Y-44450000D02*
X79652500Y-43180000D01*
X71120000Y-43180000D02*
X67310000Y-39370000D01*
X80922500Y-44450000D02*
X81207500Y-44735000D01*
X79652500Y-43180000D02*
X71120000Y-43180000D01*
X93695000Y-44735000D02*
X93980000Y-44450000D01*
X81207500Y-44735000D02*
X93695000Y-44735000D01*
%TO.N,/BATT_LVL*%
X96845000Y-26385000D02*
X68507500Y-26385000D01*
X66397500Y-29210000D02*
X68222500Y-27385000D01*
X68222500Y-27385000D02*
X68222500Y-26670000D01*
X68507500Y-26385000D02*
X68222500Y-26670000D01*
X98020000Y-27960000D02*
X98020000Y-27560000D01*
X98020000Y-27560000D02*
X96845000Y-26385000D01*
%TO.N,/RST*%
X94020000Y-27960000D02*
X94087000Y-27960000D01*
X80922500Y-34290000D02*
X82192500Y-35560000D01*
X82192500Y-35560000D02*
X85090000Y-35560000D01*
X76835000Y-33020000D02*
X71755000Y-27940000D01*
X94087000Y-27960000D02*
X94107000Y-27940000D01*
X79652500Y-33020000D02*
X76835000Y-33020000D01*
X100020000Y-33330000D02*
X99060000Y-34290000D01*
X85090000Y-35560000D02*
X95250000Y-35560000D01*
X99060000Y-34290000D02*
X97790000Y-35560000D01*
X100020000Y-27960000D02*
X100020000Y-33330000D01*
X80922500Y-34290000D02*
X79652500Y-33020000D01*
X97790000Y-35560000D02*
X95250000Y-35560000D01*
%TO.N,/FLASH*%
X89455000Y-37385000D02*
X92020000Y-39950000D01*
X80922500Y-36830000D02*
X81477500Y-37385000D01*
X80922500Y-36830000D02*
X79652500Y-35560000D01*
X79652500Y-35560000D02*
X75565000Y-35560000D01*
X75565000Y-35560000D02*
X71755000Y-31750000D01*
X81477500Y-37385000D02*
X89455000Y-37385000D01*
X92020000Y-39950000D02*
X92020000Y-43160000D01*
%TO.N,/EN*%
X96020000Y-29710000D02*
X96020000Y-27960000D01*
X92345000Y-33385000D02*
X96020000Y-29710000D01*
X80922500Y-31750000D02*
X82557500Y-33385000D01*
X82557500Y-33385000D02*
X92345000Y-33385000D01*
%TO.N,/HI_BOOT*%
X80922500Y-39370000D02*
X80937500Y-39385000D01*
X80937500Y-39385000D02*
X87645000Y-39385000D01*
X87645000Y-39385000D02*
X90020000Y-41760000D01*
X90020000Y-41760000D02*
X90020000Y-43160000D01*
%TO.N,/LOW_BOOT*%
X87195000Y-41585000D02*
X88020000Y-42410000D01*
X80922500Y-41910000D02*
X81247500Y-41585000D01*
X88020000Y-42410000D02*
X88020000Y-43160000D01*
X81247500Y-41585000D02*
X87195000Y-41585000D01*
%TO.N,/SERIAL_RX*%
X100020000Y-43160000D02*
X100020000Y-40330000D01*
X100020000Y-40330000D02*
X99060000Y-39370000D01*
X82550000Y-38109500D02*
X74304500Y-38109500D01*
X74304500Y-38109500D02*
X71755000Y-35560000D01*
%TO.N,/SERIAL_TX*%
X73025000Y-40640000D02*
X71755000Y-39370000D01*
X82550000Y-40640000D02*
X73025000Y-40640000D01*
X98020000Y-42140000D02*
X97155000Y-41275000D01*
X98020000Y-43160000D02*
X98020000Y-42140000D01*
%TD*%
%TA.AperFunction,Conductor*%
%TO.N,GND*%
G36*
X65891391Y-25285502D02*
G01*
X65937884Y-25339158D01*
X65947988Y-25409432D01*
X65918494Y-25474012D01*
X65862903Y-25511104D01*
X65812265Y-25527883D01*
X65661347Y-25620970D01*
X65661341Y-25620975D01*
X65535975Y-25746341D01*
X65535970Y-25746347D01*
X65489525Y-25821647D01*
X65436739Y-25869125D01*
X65382284Y-25881500D01*
X49768849Y-25881500D01*
X49753010Y-25879751D01*
X49752983Y-25880045D01*
X49745091Y-25879299D01*
X49675060Y-25881500D01*
X49645144Y-25881500D01*
X49638172Y-25882379D01*
X49632265Y-25882844D01*
X49585110Y-25884326D01*
X49585105Y-25884327D01*
X49565660Y-25889977D01*
X49546302Y-25893986D01*
X49526210Y-25896524D01*
X49526202Y-25896526D01*
X49482336Y-25913893D01*
X49476721Y-25915816D01*
X49431407Y-25928982D01*
X49431402Y-25928984D01*
X49413963Y-25939297D01*
X49396218Y-25947990D01*
X49377380Y-25955449D01*
X49355278Y-25971507D01*
X49339212Y-25983180D01*
X49334261Y-25986433D01*
X49293640Y-26010455D01*
X49279307Y-26024787D01*
X49264281Y-26037620D01*
X49247895Y-26049526D01*
X49247894Y-26049526D01*
X49217818Y-26085880D01*
X49213823Y-26090271D01*
X48917123Y-26386970D01*
X48854811Y-26420996D01*
X48783996Y-26415931D01*
X48779813Y-26414285D01*
X48758591Y-26405495D01*
X48681428Y-26386970D01*
X48512403Y-26346391D01*
X48260000Y-26326526D01*
X48007597Y-26346391D01*
X47761410Y-26405494D01*
X47527499Y-26502383D01*
X47311625Y-26634671D01*
X47119102Y-26799102D01*
X46954671Y-26991625D01*
X46822383Y-27207499D01*
X46725494Y-27441410D01*
X46666391Y-27687597D01*
X46656727Y-27810387D01*
X46631441Y-27876728D01*
X46574303Y-27918867D01*
X46531115Y-27926500D01*
X46404500Y-27926500D01*
X46336379Y-27906498D01*
X46289886Y-27852842D01*
X46278500Y-27800500D01*
X46278500Y-27261367D01*
X46278499Y-27261350D01*
X46271990Y-27200803D01*
X46271988Y-27200795D01*
X46241657Y-27119477D01*
X46220889Y-27063796D01*
X46220888Y-27063794D01*
X46220887Y-27063792D01*
X46133261Y-26946738D01*
X46016207Y-26859112D01*
X46016202Y-26859110D01*
X45879204Y-26808011D01*
X45879196Y-26808009D01*
X45818649Y-26801500D01*
X45818638Y-26801500D01*
X43221362Y-26801500D01*
X43221350Y-26801500D01*
X43160803Y-26808009D01*
X43160795Y-26808011D01*
X43023797Y-26859110D01*
X43023792Y-26859112D01*
X42906738Y-26946738D01*
X42819112Y-27063792D01*
X42819110Y-27063797D01*
X42768011Y-27200795D01*
X42768009Y-27200803D01*
X42761500Y-27261350D01*
X42761500Y-29858649D01*
X42768009Y-29919196D01*
X42768011Y-29919204D01*
X42804103Y-30015967D01*
X42809169Y-30086783D01*
X42804103Y-30104033D01*
X42768011Y-30200795D01*
X42768009Y-30200803D01*
X42761500Y-30261350D01*
X42761500Y-32858649D01*
X42768009Y-32919196D01*
X42768011Y-32919204D01*
X42819110Y-33056202D01*
X42819112Y-33056207D01*
X42906738Y-33173261D01*
X43023792Y-33260887D01*
X43023794Y-33260888D01*
X43023796Y-33260889D01*
X43082875Y-33282924D01*
X43160795Y-33311988D01*
X43160803Y-33311990D01*
X43221350Y-33318499D01*
X43221355Y-33318499D01*
X43221362Y-33318500D01*
X45705405Y-33318500D01*
X45773526Y-33338502D01*
X45794501Y-33355405D01*
X46397498Y-33958403D01*
X46431523Y-34020715D01*
X46430261Y-34073744D01*
X46431270Y-34073922D01*
X46430315Y-34079339D01*
X46430314Y-34079342D01*
X46430314Y-34079345D01*
X46411884Y-34290000D01*
X46430314Y-34500655D01*
X46454856Y-34592248D01*
X46485043Y-34704908D01*
X46485045Y-34704912D01*
X46574412Y-34896561D01*
X46695692Y-35069767D01*
X46695696Y-35069772D01*
X46695699Y-35069776D01*
X46845224Y-35219301D01*
X46845228Y-35219304D01*
X46845232Y-35219307D01*
X47018438Y-35340587D01*
X47018441Y-35340588D01*
X47018442Y-35340589D01*
X47210090Y-35429956D01*
X47241205Y-35438293D01*
X47301828Y-35475245D01*
X47332849Y-35539105D01*
X47324421Y-35609600D01*
X47279218Y-35664347D01*
X47241206Y-35681706D01*
X47233406Y-35683796D01*
X47210091Y-35690043D01*
X47210087Y-35690045D01*
X47018438Y-35779412D01*
X46845232Y-35900692D01*
X46845221Y-35900701D01*
X46695703Y-36050220D01*
X46695692Y-36050232D01*
X46574412Y-36223438D01*
X46485045Y-36415087D01*
X46485043Y-36415091D01*
X46473427Y-36458444D01*
X46430314Y-36619345D01*
X46411884Y-36830000D01*
X46430314Y-37040655D01*
X46430314Y-37040658D01*
X46430315Y-37040660D01*
X46431270Y-37046078D01*
X46429957Y-37046309D01*
X46428418Y-37110871D01*
X46397498Y-37161597D01*
X45794498Y-37764596D01*
X45732188Y-37798620D01*
X45705405Y-37801500D01*
X43221350Y-37801500D01*
X43160803Y-37808009D01*
X43160795Y-37808011D01*
X43023797Y-37859110D01*
X43023792Y-37859112D01*
X42906738Y-37946738D01*
X42819112Y-38063792D01*
X42819110Y-38063797D01*
X42768011Y-38200795D01*
X42768009Y-38200803D01*
X42761500Y-38261350D01*
X42761500Y-40858649D01*
X42768009Y-40919196D01*
X42768010Y-40919197D01*
X42768010Y-40919199D01*
X42768011Y-40919201D01*
X42804370Y-41016681D01*
X42809435Y-41087497D01*
X42804370Y-41104745D01*
X42768505Y-41200904D01*
X42762000Y-41261402D01*
X42762000Y-42306000D01*
X46278000Y-42306000D01*
X46278000Y-41261414D01*
X46277999Y-41261402D01*
X46271494Y-41200907D01*
X46235629Y-41104748D01*
X46230564Y-41033932D01*
X46235630Y-41016682D01*
X46271988Y-40919204D01*
X46271990Y-40919196D01*
X46278499Y-40858649D01*
X46278500Y-40858632D01*
X46278500Y-39124594D01*
X46298502Y-39056473D01*
X46315405Y-39035499D01*
X46792945Y-38557959D01*
X47293404Y-38057499D01*
X47355714Y-38023476D01*
X47408751Y-38024742D01*
X47408930Y-38023731D01*
X47414334Y-38024683D01*
X47414345Y-38024686D01*
X47625000Y-38043116D01*
X47835655Y-38024686D01*
X48039910Y-37969956D01*
X48231558Y-37880589D01*
X48262231Y-37859112D01*
X48274862Y-37850267D01*
X48404776Y-37759301D01*
X48554301Y-37609776D01*
X48658017Y-37461654D01*
X48675587Y-37436561D01*
X48675587Y-37436560D01*
X48675589Y-37436558D01*
X48764956Y-37244910D01*
X48819686Y-37040655D01*
X48838116Y-36830000D01*
X48819686Y-36619345D01*
X48764956Y-36415090D01*
X48675589Y-36223442D01*
X48675588Y-36223441D01*
X48675587Y-36223438D01*
X48554307Y-36050232D01*
X48554304Y-36050229D01*
X48554301Y-36050224D01*
X48404776Y-35900699D01*
X48404772Y-35900696D01*
X48404767Y-35900692D01*
X48231561Y-35779412D01*
X48039912Y-35690045D01*
X48039905Y-35690042D01*
X48017211Y-35683961D01*
X48008794Y-35681706D01*
X47948172Y-35644756D01*
X47917150Y-35580896D01*
X47925578Y-35510401D01*
X47970780Y-35455654D01*
X48008793Y-35438293D01*
X48039910Y-35429956D01*
X48231558Y-35340589D01*
X48404776Y-35219301D01*
X48554301Y-35069776D01*
X48653331Y-34928346D01*
X48675587Y-34896561D01*
X48675587Y-34896560D01*
X48675589Y-34896558D01*
X48764956Y-34704910D01*
X48819686Y-34500655D01*
X48838116Y-34290000D01*
X48819686Y-34079345D01*
X48764956Y-33875090D01*
X48675589Y-33683442D01*
X48675588Y-33683441D01*
X48675587Y-33683438D01*
X48554307Y-33510232D01*
X48554304Y-33510228D01*
X48554301Y-33510224D01*
X48404776Y-33360699D01*
X48404772Y-33360696D01*
X48404767Y-33360692D01*
X48231561Y-33239412D01*
X48039912Y-33150045D01*
X48039908Y-33150043D01*
X47945113Y-33124643D01*
X47835655Y-33095314D01*
X47625000Y-33076884D01*
X47414345Y-33095314D01*
X47414342Y-33095314D01*
X47414339Y-33095315D01*
X47408922Y-33096270D01*
X47408691Y-33094959D01*
X47344113Y-33093414D01*
X47293401Y-33062497D01*
X46315405Y-32084500D01*
X46281379Y-32022188D01*
X46278500Y-31995405D01*
X46278500Y-30261367D01*
X46278499Y-30261350D01*
X46271990Y-30200803D01*
X46271988Y-30200795D01*
X46235897Y-30104033D01*
X46230831Y-30033217D01*
X46235897Y-30015967D01*
X46271988Y-29919204D01*
X46271990Y-29919196D01*
X46278499Y-29858649D01*
X46278500Y-29858632D01*
X46278500Y-29319500D01*
X46298502Y-29251379D01*
X46352158Y-29204886D01*
X46404500Y-29193500D01*
X47204458Y-29193500D01*
X47272579Y-29213502D01*
X47286280Y-29223682D01*
X47311624Y-29245328D01*
X47527498Y-29377616D01*
X47761409Y-29474505D01*
X48007597Y-29533609D01*
X48260000Y-29553474D01*
X48512403Y-29533609D01*
X48758591Y-29474505D01*
X48992502Y-29377616D01*
X49208376Y-29245328D01*
X49400898Y-29080898D01*
X49565328Y-28888376D01*
X49697616Y-28672502D01*
X49794505Y-28438591D01*
X49853609Y-28192403D01*
X49873474Y-27940000D01*
X49853609Y-27687597D01*
X49794505Y-27441409D01*
X49785714Y-27420187D01*
X49778125Y-27349600D01*
X49809903Y-27286112D01*
X49812991Y-27282911D01*
X49910500Y-27185404D01*
X49972813Y-27151379D01*
X49999595Y-27148500D01*
X56685500Y-27148500D01*
X56753621Y-27168502D01*
X56800114Y-27222158D01*
X56811500Y-27274500D01*
X56811500Y-29088649D01*
X56818009Y-29149196D01*
X56818011Y-29149204D01*
X56869110Y-29286202D01*
X56869112Y-29286207D01*
X56956738Y-29403261D01*
X57073792Y-29490887D01*
X57073794Y-29490888D01*
X57073796Y-29490889D01*
X57092604Y-29497904D01*
X57210795Y-29541988D01*
X57210803Y-29541990D01*
X57271350Y-29548499D01*
X57271355Y-29548499D01*
X57271362Y-29548500D01*
X57271368Y-29548500D01*
X59568632Y-29548500D01*
X59568638Y-29548500D01*
X59568645Y-29548499D01*
X59568649Y-29548499D01*
X59629196Y-29541990D01*
X59629199Y-29541989D01*
X59629201Y-29541989D01*
X59766204Y-29490889D01*
X59788091Y-29474505D01*
X59883261Y-29403261D01*
X59970887Y-29286207D01*
X59970887Y-29286206D01*
X59970889Y-29286204D01*
X60021989Y-29149201D01*
X60028500Y-29088638D01*
X60028500Y-27274500D01*
X60048502Y-27206379D01*
X60102158Y-27159886D01*
X60154500Y-27148500D01*
X65260464Y-27148500D01*
X65328585Y-27168502D01*
X65375078Y-27222158D01*
X65385811Y-27261692D01*
X65387111Y-27274419D01*
X65387112Y-27274422D01*
X65387112Y-27274424D01*
X65387113Y-27274426D01*
X65436361Y-27423048D01*
X65442885Y-27442738D01*
X65535970Y-27593652D01*
X65535975Y-27593658D01*
X65661341Y-27719024D01*
X65661347Y-27719029D01*
X65661348Y-27719030D01*
X65812262Y-27812115D01*
X65837249Y-27820394D01*
X65895621Y-27860806D01*
X65922878Y-27926362D01*
X65910366Y-27996247D01*
X65862057Y-28048274D01*
X65837255Y-28059602D01*
X65812264Y-28067883D01*
X65661347Y-28160970D01*
X65661341Y-28160975D01*
X65535975Y-28286341D01*
X65535970Y-28286347D01*
X65442885Y-28437262D01*
X65387113Y-28605572D01*
X65387112Y-28605579D01*
X65376500Y-28709446D01*
X65376500Y-29710544D01*
X65387112Y-29814425D01*
X65442885Y-29982738D01*
X65535970Y-30133652D01*
X65535975Y-30133658D01*
X65661341Y-30259024D01*
X65661347Y-30259029D01*
X65661348Y-30259030D01*
X65812262Y-30352115D01*
X65980574Y-30407887D01*
X66084455Y-30418500D01*
X66710544Y-30418499D01*
X66814426Y-30407887D01*
X66982738Y-30352115D01*
X67133652Y-30259030D01*
X67175434Y-30217248D01*
X67221259Y-30171424D01*
X67283571Y-30137398D01*
X67354386Y-30142463D01*
X67399449Y-30171424D01*
X67486654Y-30258629D01*
X67486660Y-30258634D01*
X67637474Y-30351657D01*
X67805678Y-30407393D01*
X67805681Y-30407394D01*
X67909483Y-30417999D01*
X67909483Y-30418000D01*
X67968500Y-30418000D01*
X67968500Y-29464000D01*
X68476500Y-29464000D01*
X68476500Y-30418000D01*
X68535517Y-30418000D01*
X68535516Y-30417999D01*
X68639318Y-30407394D01*
X68639321Y-30407393D01*
X68807525Y-30351657D01*
X68958339Y-30258634D01*
X68958345Y-30258629D01*
X69083629Y-30133345D01*
X69083634Y-30133339D01*
X69176657Y-29982525D01*
X69232393Y-29814321D01*
X69232394Y-29814318D01*
X69242999Y-29710516D01*
X69243000Y-29710516D01*
X69243000Y-29464000D01*
X68476500Y-29464000D01*
X67968500Y-29464000D01*
X67968500Y-29082000D01*
X67988502Y-29013879D01*
X68042158Y-28967386D01*
X68094500Y-28956000D01*
X69243000Y-28956000D01*
X69243000Y-28709483D01*
X69232394Y-28605681D01*
X69232393Y-28605678D01*
X69176657Y-28437474D01*
X69083634Y-28286660D01*
X69083629Y-28286654D01*
X68958345Y-28161370D01*
X68958339Y-28161365D01*
X68807523Y-28068341D01*
X68781950Y-28059867D01*
X68723579Y-28019452D01*
X68696325Y-27953895D01*
X68708839Y-27884010D01*
X68757150Y-27831985D01*
X68781951Y-27820659D01*
X68807738Y-27812115D01*
X68958652Y-27719030D01*
X69084030Y-27593652D01*
X69177115Y-27442738D01*
X69232887Y-27274426D01*
X69238227Y-27222158D01*
X69243500Y-27170553D01*
X69243500Y-27144500D01*
X69263502Y-27076379D01*
X69317158Y-27029886D01*
X69369500Y-27018500D01*
X70621853Y-27018500D01*
X70689974Y-27038502D01*
X70736467Y-27092158D01*
X70746571Y-27162432D01*
X70725066Y-27216771D01*
X70660944Y-27308346D01*
X70567881Y-27507920D01*
X70567880Y-27507924D01*
X70510885Y-27720629D01*
X70491693Y-27940000D01*
X70510885Y-28159371D01*
X70511421Y-28161370D01*
X70567879Y-28372073D01*
X70567881Y-28372079D01*
X70583550Y-28405681D01*
X70660944Y-28571654D01*
X70764468Y-28719500D01*
X70787251Y-28752038D01*
X70787254Y-28752042D01*
X70942957Y-28907745D01*
X70942961Y-28907748D01*
X70942962Y-28907749D01*
X71123346Y-29034056D01*
X71322924Y-29127120D01*
X71535629Y-29184115D01*
X71755000Y-29203307D01*
X71974371Y-29184115D01*
X72005714Y-29175716D01*
X72076688Y-29177402D01*
X72127421Y-29208325D01*
X74237015Y-31317920D01*
X76327755Y-33408660D01*
X76337720Y-33421097D01*
X76337947Y-33420910D01*
X76342999Y-33427017D01*
X76394078Y-33474983D01*
X76415223Y-33496129D01*
X76415227Y-33496132D01*
X76415230Y-33496135D01*
X76420782Y-33500442D01*
X76425269Y-33504273D01*
X76447959Y-33525581D01*
X76459677Y-33536585D01*
X76459679Y-33536586D01*
X76477428Y-33546343D01*
X76493953Y-33557198D01*
X76509959Y-33569614D01*
X76551686Y-33587670D01*
X76553262Y-33588352D01*
X76558583Y-33590958D01*
X76599940Y-33613695D01*
X76599948Y-33613697D01*
X76619558Y-33618732D01*
X76638255Y-33625132D01*
X76640012Y-33625892D01*
X76641720Y-33626631D01*
X76696299Y-33672036D01*
X76717667Y-33739741D01*
X76700812Y-33805272D01*
X76635474Y-33918441D01*
X76635473Y-33918443D01*
X76635473Y-33918444D01*
X76626990Y-33944551D01*
X76576457Y-34100072D01*
X76556496Y-34290000D01*
X76576457Y-34479927D01*
X76585997Y-34509287D01*
X76635473Y-34661556D01*
X76635476Y-34661561D01*
X76679319Y-34737500D01*
X76696057Y-34806496D01*
X76672836Y-34873587D01*
X76617029Y-34917474D01*
X76570200Y-34926500D01*
X75879594Y-34926500D01*
X75811473Y-34906498D01*
X75790499Y-34889595D01*
X73023327Y-32122422D01*
X72989301Y-32060110D01*
X72990715Y-32000715D01*
X72999115Y-31969371D01*
X73018307Y-31750000D01*
X72999115Y-31530629D01*
X72942120Y-31317924D01*
X72849056Y-31118347D01*
X72722749Y-30937962D01*
X72567038Y-30782251D01*
X72386654Y-30655944D01*
X72386650Y-30655942D01*
X72187079Y-30562881D01*
X72187073Y-30562879D01*
X72097178Y-30538791D01*
X71974371Y-30505885D01*
X71755000Y-30486693D01*
X71535629Y-30505885D01*
X71322926Y-30562879D01*
X71322920Y-30562881D01*
X71123346Y-30655944D01*
X70942965Y-30782248D01*
X70942959Y-30782253D01*
X70787253Y-30937959D01*
X70787248Y-30937965D01*
X70660944Y-31118346D01*
X70567881Y-31317920D01*
X70567879Y-31317926D01*
X70530043Y-31459132D01*
X70510885Y-31530629D01*
X70491693Y-31750000D01*
X70510885Y-31969371D01*
X70531845Y-32047595D01*
X70551895Y-32122422D01*
X70567880Y-32182076D01*
X70660944Y-32381654D01*
X70787251Y-32562038D01*
X70787254Y-32562042D01*
X70942957Y-32717745D01*
X70942961Y-32717748D01*
X70942962Y-32717749D01*
X71123346Y-32844056D01*
X71322924Y-32937120D01*
X71535629Y-32994115D01*
X71755000Y-33013307D01*
X71974371Y-32994115D01*
X72005714Y-32985716D01*
X72076688Y-32987402D01*
X72127422Y-33018326D01*
X75057753Y-35948657D01*
X75067720Y-35961097D01*
X75067947Y-35960910D01*
X75072999Y-35967017D01*
X75073000Y-35967018D01*
X75124095Y-36014999D01*
X75145231Y-36036135D01*
X75150770Y-36040431D01*
X75155282Y-36044285D01*
X75176853Y-36064542D01*
X75189678Y-36076585D01*
X75189682Y-36076588D01*
X75207430Y-36086345D01*
X75223957Y-36097201D01*
X75239960Y-36109614D01*
X75283259Y-36128351D01*
X75288585Y-36130960D01*
X75329935Y-36153693D01*
X75329938Y-36153694D01*
X75329940Y-36153695D01*
X75349562Y-36158733D01*
X75368263Y-36165135D01*
X75380814Y-36170567D01*
X75386852Y-36173180D01*
X75386853Y-36173180D01*
X75386855Y-36173181D01*
X75433477Y-36180564D01*
X75439262Y-36181763D01*
X75484970Y-36193500D01*
X75505224Y-36193500D01*
X75524934Y-36195051D01*
X75527141Y-36195400D01*
X75544943Y-36198220D01*
X75579472Y-36194956D01*
X75591917Y-36193780D01*
X75597850Y-36193500D01*
X76570200Y-36193500D01*
X76638321Y-36213502D01*
X76684814Y-36267158D01*
X76694918Y-36337432D01*
X76679319Y-36382500D01*
X76635476Y-36458438D01*
X76635473Y-36458445D01*
X76576457Y-36640072D01*
X76556496Y-36830000D01*
X76576457Y-37019927D01*
X76605776Y-37110158D01*
X76635473Y-37201556D01*
X76635476Y-37201561D01*
X76684804Y-37287000D01*
X76701542Y-37355995D01*
X76678322Y-37423087D01*
X76622514Y-37466974D01*
X76575685Y-37476000D01*
X74619095Y-37476000D01*
X74550974Y-37455998D01*
X74530000Y-37439095D01*
X73023327Y-35932422D01*
X72989301Y-35870110D01*
X72990715Y-35810715D01*
X72999115Y-35779371D01*
X73018307Y-35560000D01*
X72999115Y-35340629D01*
X72942120Y-35127924D01*
X72849056Y-34928347D01*
X72722749Y-34747962D01*
X72567038Y-34592251D01*
X72386654Y-34465944D01*
X72277721Y-34415148D01*
X72187079Y-34372881D01*
X72187073Y-34372879D01*
X72097178Y-34348791D01*
X71974371Y-34315885D01*
X71755000Y-34296693D01*
X71535629Y-34315885D01*
X71322926Y-34372879D01*
X71322920Y-34372881D01*
X71123346Y-34465944D01*
X70942965Y-34592248D01*
X70942959Y-34592253D01*
X70787253Y-34747959D01*
X70787248Y-34747965D01*
X70660944Y-34928346D01*
X70567881Y-35127920D01*
X70567879Y-35127926D01*
X70510896Y-35340587D01*
X70510885Y-35340629D01*
X70491693Y-35560000D01*
X70510885Y-35779371D01*
X70510896Y-35779411D01*
X70567879Y-35992073D01*
X70567881Y-35992079D01*
X70660942Y-36191650D01*
X70660944Y-36191654D01*
X70787251Y-36372038D01*
X70787254Y-36372042D01*
X70942957Y-36527745D01*
X70942961Y-36527748D01*
X70942962Y-36527749D01*
X71123346Y-36654056D01*
X71322924Y-36747120D01*
X71535629Y-36804115D01*
X71755000Y-36823307D01*
X71974371Y-36804115D01*
X72005714Y-36795716D01*
X72076688Y-36797402D01*
X72127422Y-36828326D01*
X73797253Y-38498157D01*
X73807220Y-38510597D01*
X73807447Y-38510410D01*
X73812499Y-38516517D01*
X73863595Y-38564499D01*
X73884725Y-38585630D01*
X73890268Y-38589930D01*
X73894781Y-38593785D01*
X73929179Y-38626086D01*
X73929180Y-38626086D01*
X73929182Y-38626088D01*
X73946929Y-38635844D01*
X73963459Y-38646702D01*
X73979459Y-38659113D01*
X74010636Y-38672604D01*
X74022751Y-38677847D01*
X74028085Y-38680459D01*
X74069440Y-38703195D01*
X74089062Y-38708233D01*
X74107763Y-38714635D01*
X74126355Y-38722681D01*
X74172970Y-38730063D01*
X74178742Y-38731258D01*
X74224470Y-38743000D01*
X74244731Y-38743000D01*
X74264439Y-38744550D01*
X74284443Y-38747719D01*
X74317959Y-38744551D01*
X74331410Y-38743280D01*
X74337342Y-38743000D01*
X76564716Y-38743000D01*
X76632837Y-38763002D01*
X76679330Y-38816658D01*
X76689434Y-38886932D01*
X76673836Y-38931996D01*
X76649182Y-38974699D01*
X76635473Y-38998443D01*
X76635473Y-38998445D01*
X76576457Y-39180072D01*
X76556496Y-39370000D01*
X76576457Y-39559927D01*
X76596208Y-39620713D01*
X76635473Y-39741556D01*
X76635476Y-39741561D01*
X76679319Y-39817500D01*
X76696057Y-39886496D01*
X76672836Y-39953587D01*
X76617029Y-39997474D01*
X76570200Y-40006500D01*
X73339595Y-40006500D01*
X73271474Y-39986498D01*
X73250500Y-39969595D01*
X73023327Y-39742422D01*
X72989301Y-39680110D01*
X72990715Y-39620715D01*
X72999115Y-39589371D01*
X73018307Y-39370000D01*
X72999115Y-39150629D01*
X72942120Y-38937924D01*
X72849056Y-38738347D01*
X72722749Y-38557962D01*
X72567038Y-38402251D01*
X72386654Y-38275944D01*
X72386648Y-38275941D01*
X72187079Y-38182881D01*
X72187073Y-38182879D01*
X72043842Y-38144500D01*
X71974371Y-38125885D01*
X71755000Y-38106693D01*
X71535629Y-38125885D01*
X71322926Y-38182879D01*
X71322920Y-38182881D01*
X71123346Y-38275944D01*
X70942965Y-38402248D01*
X70942959Y-38402253D01*
X70787253Y-38557959D01*
X70787248Y-38557965D01*
X70660944Y-38738346D01*
X70567881Y-38937920D01*
X70567879Y-38937926D01*
X70517861Y-39124594D01*
X70510885Y-39150629D01*
X70491693Y-39370000D01*
X70510885Y-39589371D01*
X70519283Y-39620713D01*
X70567879Y-39802073D01*
X70567881Y-39802079D01*
X70638530Y-39953587D01*
X70660944Y-40001654D01*
X70772602Y-40161117D01*
X70787251Y-40182038D01*
X70787254Y-40182042D01*
X70942957Y-40337745D01*
X70942961Y-40337748D01*
X70942962Y-40337749D01*
X71123346Y-40464056D01*
X71322924Y-40557120D01*
X71535629Y-40614115D01*
X71755000Y-40633307D01*
X71974371Y-40614115D01*
X72005714Y-40605716D01*
X72076688Y-40607402D01*
X72127422Y-40638326D01*
X72517753Y-41028657D01*
X72527720Y-41041097D01*
X72527947Y-41040910D01*
X72532999Y-41047017D01*
X72584095Y-41094999D01*
X72605225Y-41116130D01*
X72610768Y-41120430D01*
X72615281Y-41124285D01*
X72649679Y-41156586D01*
X72649680Y-41156586D01*
X72649682Y-41156588D01*
X72667429Y-41166344D01*
X72683959Y-41177202D01*
X72699959Y-41189613D01*
X72731136Y-41203104D01*
X72743251Y-41208347D01*
X72748585Y-41210959D01*
X72789940Y-41233695D01*
X72809562Y-41238733D01*
X72828263Y-41245135D01*
X72840174Y-41250290D01*
X72846852Y-41253180D01*
X72846853Y-41253180D01*
X72846855Y-41253181D01*
X72893477Y-41260564D01*
X72899262Y-41261763D01*
X72944970Y-41273500D01*
X72965224Y-41273500D01*
X72984934Y-41275051D01*
X72987141Y-41275400D01*
X73004943Y-41278220D01*
X73039007Y-41275000D01*
X73051917Y-41273780D01*
X73057850Y-41273500D01*
X77951365Y-41273500D01*
X78019486Y-41293502D01*
X78065979Y-41347158D01*
X78075668Y-41406203D01*
X78077163Y-41406280D01*
X78077000Y-41409483D01*
X78077000Y-41656000D01*
X79225500Y-41656000D01*
X79293621Y-41676002D01*
X79340114Y-41729658D01*
X79351500Y-41782000D01*
X79351500Y-42038000D01*
X79331498Y-42106121D01*
X79277842Y-42152614D01*
X79225500Y-42164000D01*
X78077000Y-42164000D01*
X78077000Y-42410516D01*
X78077163Y-42413720D01*
X78075539Y-42413802D01*
X78063810Y-42477352D01*
X78015223Y-42529119D01*
X77951365Y-42546500D01*
X71434594Y-42546500D01*
X71366473Y-42526498D01*
X71345499Y-42509595D01*
X68578327Y-39742422D01*
X68544301Y-39680110D01*
X68545715Y-39620715D01*
X68554115Y-39589371D01*
X68573307Y-39370000D01*
X68554115Y-39150629D01*
X68497120Y-38937924D01*
X68404056Y-38738347D01*
X68277749Y-38557962D01*
X68122038Y-38402251D01*
X67941654Y-38275944D01*
X67941648Y-38275941D01*
X67941648Y-38275940D01*
X67809232Y-38214195D01*
X67755946Y-38167278D01*
X67736485Y-38099001D01*
X67757026Y-38031041D01*
X67809232Y-37985805D01*
X67941648Y-37924059D01*
X67941648Y-37924058D01*
X67941654Y-37924056D01*
X68122038Y-37797749D01*
X68277749Y-37642038D01*
X68404056Y-37461654D01*
X68497120Y-37262076D01*
X68554115Y-37049371D01*
X68573307Y-36830000D01*
X68554115Y-36610629D01*
X68497120Y-36397924D01*
X68404056Y-36198347D01*
X68277749Y-36017962D01*
X68122038Y-35862251D01*
X67941654Y-35735944D01*
X67843222Y-35690045D01*
X67808640Y-35673919D01*
X67755355Y-35627002D01*
X67735894Y-35558725D01*
X67756436Y-35490765D01*
X67808640Y-35445529D01*
X67941410Y-35383616D01*
X67941412Y-35383615D01*
X68001986Y-35341198D01*
X68001986Y-35341197D01*
X67349517Y-34688727D01*
X67435148Y-34675165D01*
X67548045Y-34617641D01*
X67637641Y-34528045D01*
X67695165Y-34415148D01*
X67708727Y-34329516D01*
X68361197Y-34981986D01*
X68361198Y-34981986D01*
X68403615Y-34921412D01*
X68403619Y-34921405D01*
X68496645Y-34721912D01*
X68496649Y-34721903D01*
X68553619Y-34509287D01*
X68572804Y-34290000D01*
X68553619Y-34070712D01*
X68496649Y-33858096D01*
X68496647Y-33858092D01*
X68403621Y-33658598D01*
X68361198Y-33598012D01*
X68361196Y-33598012D01*
X67708727Y-34250481D01*
X67695165Y-34164852D01*
X67637641Y-34051955D01*
X67548045Y-33962359D01*
X67435148Y-33904835D01*
X67349516Y-33891272D01*
X68001986Y-33238801D01*
X68001986Y-33238800D01*
X67941401Y-33196378D01*
X67941402Y-33196378D01*
X67741907Y-33103352D01*
X67741903Y-33103350D01*
X67529287Y-33046380D01*
X67310000Y-33027195D01*
X67090712Y-33046380D01*
X66878096Y-33103350D01*
X66878092Y-33103352D01*
X66678598Y-33196378D01*
X66618011Y-33238801D01*
X67270482Y-33891272D01*
X67184852Y-33904835D01*
X67071955Y-33962359D01*
X66982359Y-34051955D01*
X66924835Y-34164852D01*
X66911272Y-34250482D01*
X66258801Y-33598011D01*
X66216378Y-33658598D01*
X66123352Y-33858092D01*
X66123350Y-33858096D01*
X66066380Y-34070712D01*
X66047195Y-34290000D01*
X66066380Y-34509287D01*
X66123350Y-34721903D01*
X66123352Y-34721907D01*
X66216378Y-34921402D01*
X66258801Y-34981986D01*
X66911272Y-34329515D01*
X66924835Y-34415148D01*
X66982359Y-34528045D01*
X67071955Y-34617641D01*
X67184852Y-34675165D01*
X67270481Y-34688727D01*
X66618012Y-35341196D01*
X66618012Y-35341197D01*
X66678600Y-35383622D01*
X66811359Y-35445529D01*
X66864644Y-35492446D01*
X66884105Y-35560724D01*
X66863563Y-35628684D01*
X66811359Y-35673919D01*
X66678346Y-35735944D01*
X66497965Y-35862248D01*
X66497959Y-35862253D01*
X66342253Y-36017959D01*
X66342248Y-36017965D01*
X66215944Y-36198346D01*
X66122881Y-36397920D01*
X66122880Y-36397924D01*
X66065885Y-36610629D01*
X66046693Y-36830000D01*
X66065122Y-37040655D01*
X66065885Y-37049370D01*
X66122879Y-37262073D01*
X66122881Y-37262079D01*
X66215942Y-37461650D01*
X66215944Y-37461654D01*
X66319661Y-37609776D01*
X66342251Y-37642038D01*
X66342254Y-37642042D01*
X66497957Y-37797745D01*
X66497961Y-37797748D01*
X66497962Y-37797749D01*
X66678346Y-37924056D01*
X66776775Y-37969954D01*
X66810768Y-37985805D01*
X66864053Y-38032722D01*
X66883514Y-38100999D01*
X66862972Y-38168959D01*
X66810768Y-38214195D01*
X66678346Y-38275944D01*
X66497965Y-38402248D01*
X66497959Y-38402253D01*
X66342253Y-38557959D01*
X66342248Y-38557965D01*
X66215944Y-38738346D01*
X66122881Y-38937920D01*
X66122879Y-38937926D01*
X66072861Y-39124594D01*
X66065885Y-39150629D01*
X66046693Y-39370000D01*
X66065885Y-39589371D01*
X66074283Y-39620713D01*
X66122879Y-39802073D01*
X66122881Y-39802079D01*
X66193530Y-39953587D01*
X66215944Y-40001654D01*
X66327602Y-40161117D01*
X66342251Y-40182038D01*
X66342254Y-40182042D01*
X66497957Y-40337745D01*
X66497966Y-40337752D01*
X66618694Y-40422287D01*
X66663023Y-40477744D01*
X66670332Y-40548363D01*
X66638302Y-40611724D01*
X66577100Y-40647709D01*
X66546424Y-40651500D01*
X66511350Y-40651500D01*
X66450803Y-40658009D01*
X66450795Y-40658011D01*
X66313797Y-40709110D01*
X66313792Y-40709112D01*
X66196738Y-40796738D01*
X66109112Y-40913792D01*
X66109110Y-40913797D01*
X66058011Y-41050795D01*
X66058009Y-41050803D01*
X66051500Y-41111350D01*
X66051500Y-42708649D01*
X66058009Y-42769196D01*
X66058011Y-42769204D01*
X66109110Y-42906202D01*
X66109112Y-42906207D01*
X66196738Y-43023261D01*
X66313792Y-43110887D01*
X66313794Y-43110888D01*
X66313796Y-43110889D01*
X66334202Y-43118500D01*
X66450795Y-43161988D01*
X66450803Y-43161990D01*
X66511350Y-43168499D01*
X66511355Y-43168499D01*
X66511362Y-43168500D01*
X66554070Y-43168500D01*
X66622191Y-43188502D01*
X66668684Y-43242158D01*
X66678518Y-43274787D01*
X66679325Y-43279887D01*
X66684977Y-43299339D01*
X66688986Y-43318697D01*
X66691525Y-43338793D01*
X66691526Y-43338799D01*
X66708893Y-43382662D01*
X66710816Y-43388279D01*
X66723982Y-43433593D01*
X66734294Y-43451031D01*
X66742988Y-43468779D01*
X66750444Y-43487609D01*
X66750450Y-43487620D01*
X66778177Y-43525783D01*
X66781437Y-43530746D01*
X66805460Y-43571365D01*
X66819779Y-43585684D01*
X66832617Y-43600714D01*
X66842156Y-43613843D01*
X66844528Y-43617107D01*
X66872794Y-43640491D01*
X66880886Y-43647185D01*
X66885267Y-43651171D01*
X67487975Y-44253879D01*
X68072753Y-44838657D01*
X68082720Y-44851097D01*
X68082947Y-44850910D01*
X68087999Y-44857017D01*
X68139095Y-44904999D01*
X68160225Y-44926130D01*
X68165768Y-44930430D01*
X68170281Y-44934285D01*
X68204679Y-44966586D01*
X68204680Y-44966586D01*
X68204682Y-44966588D01*
X68222429Y-44976344D01*
X68238959Y-44987202D01*
X68254959Y-44999613D01*
X68286136Y-45013104D01*
X68298251Y-45018347D01*
X68303585Y-45020959D01*
X68344940Y-45043695D01*
X68364562Y-45048733D01*
X68383263Y-45055135D01*
X68395814Y-45060567D01*
X68401852Y-45063180D01*
X68401853Y-45063180D01*
X68401855Y-45063181D01*
X68448477Y-45070564D01*
X68454262Y-45071763D01*
X68499970Y-45083500D01*
X68520224Y-45083500D01*
X68539934Y-45085051D01*
X68542141Y-45085400D01*
X68559943Y-45088220D01*
X68593870Y-45085012D01*
X68606917Y-45083780D01*
X68612850Y-45083500D01*
X70352477Y-45083500D01*
X70420598Y-45103502D01*
X70467091Y-45157158D01*
X70472079Y-45169860D01*
X70495169Y-45239541D01*
X70497885Y-45247738D01*
X70590970Y-45398652D01*
X70590975Y-45398658D01*
X70716341Y-45524024D01*
X70716347Y-45524029D01*
X70716348Y-45524030D01*
X70867262Y-45617115D01*
X70867264Y-45617115D01*
X70873508Y-45620967D01*
X70871853Y-45623649D01*
X70914530Y-45661235D01*
X70933983Y-45729515D01*
X70913433Y-45797472D01*
X70859405Y-45843531D01*
X70807987Y-45854500D01*
X20311500Y-45854500D01*
X20243379Y-45834498D01*
X20196886Y-45780842D01*
X20185500Y-45728500D01*
X20185500Y-44444500D01*
X20205502Y-44376379D01*
X20259158Y-44329886D01*
X20311500Y-44318500D01*
X22818632Y-44318500D01*
X22818638Y-44318500D01*
X22818645Y-44318499D01*
X22818649Y-44318499D01*
X22879196Y-44311990D01*
X22879199Y-44311989D01*
X22879201Y-44311989D01*
X23016204Y-44260889D01*
X23016799Y-44260444D01*
X23133261Y-44173261D01*
X23220887Y-44056207D01*
X23220887Y-44056206D01*
X23220889Y-44056204D01*
X23271989Y-43919201D01*
X23278500Y-43858638D01*
X23278500Y-42814000D01*
X42762000Y-42814000D01*
X42762000Y-43858597D01*
X42768505Y-43919093D01*
X42819555Y-44055964D01*
X42819555Y-44055965D01*
X42907095Y-44172904D01*
X43024034Y-44260444D01*
X43160906Y-44311494D01*
X43221402Y-44317999D01*
X43221415Y-44318000D01*
X44266000Y-44318000D01*
X44266000Y-42814000D01*
X44774000Y-42814000D01*
X44774000Y-44318000D01*
X45818585Y-44318000D01*
X45818597Y-44317999D01*
X45879093Y-44311494D01*
X46015964Y-44260444D01*
X46015965Y-44260444D01*
X46132904Y-44172904D01*
X46220444Y-44055965D01*
X46220444Y-44055964D01*
X46271494Y-43919093D01*
X46277999Y-43858597D01*
X46278000Y-43858585D01*
X46278000Y-42814000D01*
X44774000Y-42814000D01*
X44266000Y-42814000D01*
X42762000Y-42814000D01*
X23278500Y-42814000D01*
X23278500Y-41261362D01*
X23278414Y-41260560D01*
X23271990Y-41200803D01*
X23271988Y-41200795D01*
X23228825Y-41085073D01*
X23220889Y-41063796D01*
X23220888Y-41063794D01*
X23220887Y-41063792D01*
X23133261Y-40946738D01*
X23016207Y-40859112D01*
X23016202Y-40859110D01*
X22879204Y-40808011D01*
X22879196Y-40808009D01*
X22818649Y-40801500D01*
X22818638Y-40801500D01*
X20311500Y-40801500D01*
X20243379Y-40781498D01*
X20196886Y-40727842D01*
X20185500Y-40675500D01*
X20185500Y-30444500D01*
X20205502Y-30376379D01*
X20259158Y-30329886D01*
X20311500Y-30318500D01*
X22818632Y-30318500D01*
X22818638Y-30318500D01*
X22818645Y-30318499D01*
X22818649Y-30318499D01*
X22879196Y-30311990D01*
X22879199Y-30311989D01*
X22879201Y-30311989D01*
X23016204Y-30260889D01*
X23018688Y-30259030D01*
X23133261Y-30173261D01*
X23220887Y-30056207D01*
X23220887Y-30056206D01*
X23220889Y-30056204D01*
X23271989Y-29919201D01*
X23275329Y-29888141D01*
X23278499Y-29858649D01*
X23278500Y-29858632D01*
X23278500Y-27261367D01*
X23278499Y-27261350D01*
X23271990Y-27200803D01*
X23271988Y-27200795D01*
X23241657Y-27119477D01*
X23220889Y-27063796D01*
X23220888Y-27063794D01*
X23220887Y-27063792D01*
X23133261Y-26946738D01*
X23016207Y-26859112D01*
X23016202Y-26859110D01*
X22879204Y-26808011D01*
X22879196Y-26808009D01*
X22818649Y-26801500D01*
X22818638Y-26801500D01*
X20311500Y-26801500D01*
X20243379Y-26781498D01*
X20196886Y-26727842D01*
X20185500Y-26675500D01*
X20185500Y-25391500D01*
X20205502Y-25323379D01*
X20259158Y-25276886D01*
X20311500Y-25265500D01*
X65823270Y-25265500D01*
X65891391Y-25285502D01*
G37*
%TD.AperFunction*%
%TA.AperFunction,Conductor*%
G36*
X76638321Y-43833502D02*
G01*
X76684814Y-43887158D01*
X76694918Y-43957432D01*
X76679319Y-44002500D01*
X76635476Y-44078438D01*
X76635473Y-44078445D01*
X76576457Y-44260072D01*
X76556496Y-44450000D01*
X76576457Y-44639927D01*
X76604211Y-44725343D01*
X76635473Y-44821556D01*
X76635476Y-44821561D01*
X76730958Y-44986941D01*
X76730965Y-44986951D01*
X76858744Y-45128864D01*
X76858747Y-45128866D01*
X77013248Y-45241118D01*
X77187712Y-45318794D01*
X77374513Y-45358500D01*
X77565487Y-45358500D01*
X77752288Y-45318794D01*
X77926752Y-45241118D01*
X77973877Y-45206879D01*
X78040742Y-45183021D01*
X78109894Y-45199100D01*
X78155177Y-45242667D01*
X78168997Y-45265072D01*
X78235970Y-45373652D01*
X78235975Y-45373658D01*
X78361341Y-45499024D01*
X78361347Y-45499029D01*
X78361348Y-45499030D01*
X78512262Y-45592115D01*
X78562904Y-45608895D01*
X78621275Y-45649309D01*
X78648531Y-45714865D01*
X78636018Y-45784750D01*
X78587709Y-45836776D01*
X78523271Y-45854500D01*
X73970820Y-45854500D01*
X73902699Y-45834498D01*
X73856206Y-45780842D01*
X73846102Y-45710568D01*
X73875596Y-45645988D01*
X73907253Y-45622090D01*
X73906279Y-45620510D01*
X74063339Y-45523634D01*
X74063345Y-45523629D01*
X74188629Y-45398345D01*
X74188634Y-45398339D01*
X74281657Y-45247525D01*
X74337393Y-45079321D01*
X74337394Y-45079318D01*
X74347999Y-44975516D01*
X74348000Y-44975516D01*
X74348000Y-44704000D01*
X73212000Y-44704000D01*
X73143879Y-44683998D01*
X73097386Y-44630342D01*
X73086000Y-44578000D01*
X73086000Y-44322000D01*
X73106002Y-44253879D01*
X73159658Y-44207386D01*
X73212000Y-44196000D01*
X74348000Y-44196000D01*
X74348000Y-43939500D01*
X74368002Y-43871379D01*
X74421658Y-43824886D01*
X74474000Y-43813500D01*
X76570200Y-43813500D01*
X76638321Y-43833502D01*
G37*
%TD.AperFunction*%
%TA.AperFunction,Conductor*%
G36*
X84954121Y-42238502D02*
G01*
X85000614Y-42292158D01*
X85012000Y-42344500D01*
X85012000Y-42906000D01*
X86148000Y-42906000D01*
X86216121Y-42926002D01*
X86262614Y-42979658D01*
X86274000Y-43032000D01*
X86274000Y-43288000D01*
X86253998Y-43356121D01*
X86200342Y-43402614D01*
X86148000Y-43414000D01*
X85012000Y-43414000D01*
X85012000Y-43975500D01*
X84991998Y-44043621D01*
X84938342Y-44090114D01*
X84886000Y-44101500D01*
X82069499Y-44101500D01*
X82001378Y-44081498D01*
X81954885Y-44027842D01*
X81943499Y-43975500D01*
X81943499Y-43949455D01*
X81932887Y-43845574D01*
X81916625Y-43796498D01*
X81877115Y-43677262D01*
X81784030Y-43526348D01*
X81784029Y-43526347D01*
X81784024Y-43526341D01*
X81658658Y-43400975D01*
X81658652Y-43400970D01*
X81628970Y-43382662D01*
X81507738Y-43307885D01*
X81482747Y-43299604D01*
X81424377Y-43259191D01*
X81397121Y-43193635D01*
X81409634Y-43123749D01*
X81457944Y-43071723D01*
X81482746Y-43060396D01*
X81507738Y-43052115D01*
X81658652Y-42959030D01*
X81784030Y-42833652D01*
X81877115Y-42682738D01*
X81932887Y-42514426D01*
X81937435Y-42469905D01*
X81943500Y-42410553D01*
X81943500Y-42344500D01*
X81963502Y-42276379D01*
X82017158Y-42229886D01*
X82069500Y-42218500D01*
X84886000Y-42218500D01*
X84954121Y-42238502D01*
G37*
%TD.AperFunction*%
%TA.AperFunction,Conductor*%
G36*
X89208527Y-38038502D02*
G01*
X89229501Y-38055405D01*
X91349595Y-40175499D01*
X91383621Y-40237811D01*
X91386500Y-40264594D01*
X91386500Y-41329591D01*
X91366498Y-41397712D01*
X91312842Y-41444205D01*
X91304534Y-41447646D01*
X91273795Y-41459111D01*
X91273792Y-41459112D01*
X91156740Y-41546737D01*
X91120868Y-41594657D01*
X91064032Y-41637203D01*
X90993216Y-41642267D01*
X90930904Y-41608242D01*
X90919132Y-41594657D01*
X90883261Y-41546739D01*
X90883259Y-41546738D01*
X90883259Y-41546737D01*
X90766207Y-41459112D01*
X90766202Y-41459110D01*
X90629204Y-41408011D01*
X90629197Y-41408010D01*
X90600245Y-41404897D01*
X90534653Y-41377727D01*
X90524620Y-41368714D01*
X90510218Y-41354312D01*
X90497377Y-41339279D01*
X90485471Y-41322892D01*
X90464537Y-41305574D01*
X90449108Y-41292810D01*
X90444736Y-41288831D01*
X88152244Y-38996339D01*
X88142279Y-38983901D01*
X88142052Y-38984090D01*
X88137001Y-38977984D01*
X88137000Y-38977982D01*
X88085921Y-38930016D01*
X88064777Y-38908871D01*
X88064772Y-38908866D01*
X88059225Y-38904563D01*
X88054717Y-38900712D01*
X88020325Y-38868417D01*
X88020319Y-38868413D01*
X88002563Y-38858651D01*
X87986047Y-38847802D01*
X87970041Y-38835386D01*
X87939289Y-38822078D01*
X87926740Y-38816648D01*
X87921408Y-38814036D01*
X87880061Y-38791305D01*
X87860436Y-38786266D01*
X87841736Y-38779864D01*
X87823145Y-38771819D01*
X87823143Y-38771818D01*
X87823142Y-38771818D01*
X87776542Y-38764437D01*
X87770729Y-38763233D01*
X87725030Y-38751500D01*
X87704776Y-38751500D01*
X87685066Y-38749949D01*
X87665057Y-38746780D01*
X87665056Y-38746780D01*
X87618083Y-38751220D01*
X87612150Y-38751500D01*
X86054500Y-38751500D01*
X85986379Y-38731498D01*
X85939886Y-38677842D01*
X85928500Y-38625500D01*
X85928500Y-38144500D01*
X85948502Y-38076379D01*
X86002158Y-38029886D01*
X86054500Y-38018500D01*
X89140406Y-38018500D01*
X89208527Y-38038502D01*
G37*
%TD.AperFunction*%
%TA.AperFunction,Conductor*%
G36*
X100484133Y-33865937D02*
G01*
X100540968Y-33908484D01*
X100565779Y-33975004D01*
X100566100Y-33983993D01*
X100566100Y-39676004D01*
X100546098Y-39744125D01*
X100492442Y-39790618D01*
X100422168Y-39800722D01*
X100357588Y-39771228D01*
X100351005Y-39765099D01*
X100007121Y-39421215D01*
X99973095Y-39358903D01*
X99970908Y-39345306D01*
X99953542Y-39180072D01*
X99894527Y-38998444D01*
X99799040Y-38833056D01*
X99799038Y-38833054D01*
X99799034Y-38833048D01*
X99671255Y-38691135D01*
X99516752Y-38578882D01*
X99342288Y-38501206D01*
X99155487Y-38461500D01*
X98964513Y-38461500D01*
X98777711Y-38501206D01*
X98603247Y-38578882D01*
X98448744Y-38691135D01*
X98320965Y-38833048D01*
X98320958Y-38833058D01*
X98225476Y-38998438D01*
X98225473Y-38998445D01*
X98166457Y-39180072D01*
X98146496Y-39370000D01*
X98166457Y-39559927D01*
X98186208Y-39620713D01*
X98225473Y-39741556D01*
X98225476Y-39741561D01*
X98320958Y-39906941D01*
X98320965Y-39906951D01*
X98448744Y-40048864D01*
X98448747Y-40048866D01*
X98603248Y-40161118D01*
X98777712Y-40238794D01*
X98964513Y-40278500D01*
X99020406Y-40278500D01*
X99088527Y-40298502D01*
X99109501Y-40315405D01*
X99349595Y-40555499D01*
X99383621Y-40617811D01*
X99386500Y-40644594D01*
X99386500Y-41329591D01*
X99366498Y-41397712D01*
X99312842Y-41444205D01*
X99304534Y-41447646D01*
X99273795Y-41459111D01*
X99273792Y-41459112D01*
X99156740Y-41546737D01*
X99120868Y-41594657D01*
X99064032Y-41637203D01*
X98993216Y-41642267D01*
X98930904Y-41608242D01*
X98919132Y-41594657D01*
X98883261Y-41546739D01*
X98883259Y-41546738D01*
X98883259Y-41546737D01*
X98766207Y-41459112D01*
X98766202Y-41459110D01*
X98629204Y-41408011D01*
X98629196Y-41408009D01*
X98568649Y-41401500D01*
X98568638Y-41401500D01*
X98229595Y-41401500D01*
X98161474Y-41381498D01*
X98140500Y-41364595D01*
X98102121Y-41326216D01*
X98068095Y-41263904D01*
X98065908Y-41250306D01*
X98048542Y-41085072D01*
X97989527Y-40903444D01*
X97894040Y-40738056D01*
X97894038Y-40738054D01*
X97894034Y-40738048D01*
X97766255Y-40596135D01*
X97611752Y-40483882D01*
X97437288Y-40406206D01*
X97250487Y-40366500D01*
X97059513Y-40366500D01*
X96872711Y-40406206D01*
X96698247Y-40483882D01*
X96543744Y-40596135D01*
X96415965Y-40738048D01*
X96415958Y-40738058D01*
X96346068Y-40859112D01*
X96320473Y-40903444D01*
X96315353Y-40919201D01*
X96261457Y-41085072D01*
X96241496Y-41275001D01*
X96241496Y-41275500D01*
X96241414Y-41275777D01*
X96240806Y-41281567D01*
X96239747Y-41281455D01*
X96221494Y-41343621D01*
X96167838Y-41390114D01*
X96115496Y-41401500D01*
X95471350Y-41401500D01*
X95410803Y-41408009D01*
X95410795Y-41408011D01*
X95273797Y-41459110D01*
X95273792Y-41459112D01*
X95156740Y-41546737D01*
X95120868Y-41594657D01*
X95064032Y-41637203D01*
X94993216Y-41642267D01*
X94930904Y-41608242D01*
X94919132Y-41594657D01*
X94883261Y-41546739D01*
X94883259Y-41546738D01*
X94883259Y-41546737D01*
X94766207Y-41459112D01*
X94766202Y-41459110D01*
X94629204Y-41408011D01*
X94629196Y-41408009D01*
X94568649Y-41401500D01*
X94568638Y-41401500D01*
X93471362Y-41401500D01*
X93471350Y-41401500D01*
X93410803Y-41408009D01*
X93410795Y-41408011D01*
X93273797Y-41459110D01*
X93273792Y-41459112D01*
X93156740Y-41546737D01*
X93120868Y-41594657D01*
X93064032Y-41637203D01*
X92993216Y-41642267D01*
X92930904Y-41608242D01*
X92919132Y-41594657D01*
X92883261Y-41546739D01*
X92883259Y-41546738D01*
X92883259Y-41546737D01*
X92766207Y-41459112D01*
X92766204Y-41459111D01*
X92735466Y-41447646D01*
X92678631Y-41405099D01*
X92653821Y-41338578D01*
X92653500Y-41329591D01*
X92653500Y-40033853D01*
X92655249Y-40018011D01*
X92654956Y-40017984D01*
X92655702Y-40010091D01*
X92653500Y-39940028D01*
X92653500Y-39910150D01*
X92653500Y-39910144D01*
X92652620Y-39903182D01*
X92652156Y-39897293D01*
X92650674Y-39850111D01*
X92645017Y-39830642D01*
X92641012Y-39811298D01*
X92638474Y-39791203D01*
X92621100Y-39747322D01*
X92619181Y-39741716D01*
X92606018Y-39696407D01*
X92595706Y-39678970D01*
X92587010Y-39661221D01*
X92579552Y-39642383D01*
X92551812Y-39604203D01*
X92548564Y-39599258D01*
X92524542Y-39558638D01*
X92510214Y-39544310D01*
X92497384Y-39529289D01*
X92485472Y-39512893D01*
X92485469Y-39512891D01*
X92485469Y-39512890D01*
X92449107Y-39482808D01*
X92444726Y-39478822D01*
X89962244Y-36996339D01*
X89952279Y-36983901D01*
X89952052Y-36984090D01*
X89947001Y-36977984D01*
X89947000Y-36977982D01*
X89895921Y-36930016D01*
X89874777Y-36908871D01*
X89874772Y-36908866D01*
X89869225Y-36904563D01*
X89864717Y-36900712D01*
X89830325Y-36868417D01*
X89830319Y-36868413D01*
X89812563Y-36858651D01*
X89796047Y-36847802D01*
X89780041Y-36835386D01*
X89749289Y-36822078D01*
X89736740Y-36816648D01*
X89731408Y-36814036D01*
X89690061Y-36791305D01*
X89670436Y-36786266D01*
X89651736Y-36779864D01*
X89633145Y-36771819D01*
X89633143Y-36771818D01*
X89633142Y-36771818D01*
X89586542Y-36764437D01*
X89580729Y-36763233D01*
X89535030Y-36751500D01*
X89514776Y-36751500D01*
X89495066Y-36749949D01*
X89475057Y-36746780D01*
X89475056Y-36746780D01*
X89428083Y-36751220D01*
X89422150Y-36751500D01*
X86054500Y-36751500D01*
X85986379Y-36731498D01*
X85939886Y-36677842D01*
X85928500Y-36625500D01*
X85928500Y-36319500D01*
X85948502Y-36251379D01*
X86002158Y-36204886D01*
X86054500Y-36193500D01*
X95169970Y-36193500D01*
X97706147Y-36193500D01*
X97721988Y-36195249D01*
X97722016Y-36194956D01*
X97729902Y-36195700D01*
X97729909Y-36195702D01*
X97799958Y-36193500D01*
X97829856Y-36193500D01*
X97836818Y-36192619D01*
X97842719Y-36192154D01*
X97889889Y-36190673D01*
X97909347Y-36185019D01*
X97928694Y-36181013D01*
X97948797Y-36178474D01*
X97992679Y-36161099D01*
X97998274Y-36159183D01*
X98026816Y-36150891D01*
X98043591Y-36146019D01*
X98043595Y-36146017D01*
X98061026Y-36135708D01*
X98078780Y-36127009D01*
X98097617Y-36119552D01*
X98135786Y-36091818D01*
X98140744Y-36088562D01*
X98181362Y-36064542D01*
X98195685Y-36050218D01*
X98210724Y-36037374D01*
X98227107Y-36025472D01*
X98257193Y-35989103D01*
X98261161Y-35984741D01*
X99536134Y-34709770D01*
X99536133Y-34709770D01*
X99595638Y-34650265D01*
X100351007Y-33894895D01*
X100413317Y-33860872D01*
X100484133Y-33865937D01*
G37*
%TD.AperFunction*%
%TA.AperFunction,Conductor*%
G36*
X99109095Y-29511756D02*
G01*
X99120868Y-29525343D01*
X99156738Y-29573261D01*
X99273796Y-29660889D01*
X99304531Y-29672353D01*
X99361368Y-29714899D01*
X99386179Y-29781419D01*
X99386500Y-29790409D01*
X99386500Y-33015403D01*
X99366498Y-33083524D01*
X99349595Y-33104498D01*
X98650914Y-33803179D01*
X98650912Y-33803182D01*
X97564500Y-34889595D01*
X97502188Y-34923620D01*
X97475405Y-34926500D01*
X86054500Y-34926500D01*
X85986379Y-34906498D01*
X85939886Y-34852842D01*
X85928500Y-34800500D01*
X85928500Y-34144500D01*
X85948502Y-34076379D01*
X86002158Y-34029886D01*
X86054500Y-34018500D01*
X92261147Y-34018500D01*
X92276988Y-34020249D01*
X92277016Y-34019956D01*
X92284902Y-34020700D01*
X92284909Y-34020702D01*
X92354958Y-34018500D01*
X92384856Y-34018500D01*
X92391818Y-34017619D01*
X92397719Y-34017154D01*
X92444889Y-34015673D01*
X92464347Y-34010019D01*
X92483694Y-34006013D01*
X92503797Y-34003474D01*
X92547679Y-33986099D01*
X92553274Y-33984183D01*
X92581816Y-33975891D01*
X92598591Y-33971019D01*
X92598595Y-33971017D01*
X92616026Y-33960708D01*
X92633780Y-33952009D01*
X92652617Y-33944552D01*
X92690786Y-33916818D01*
X92695744Y-33913562D01*
X92736362Y-33889542D01*
X92750685Y-33875218D01*
X92765724Y-33862374D01*
X92767431Y-33861134D01*
X92782107Y-33850472D01*
X92812193Y-33814103D01*
X92816161Y-33809741D01*
X96408660Y-30217243D01*
X96421098Y-30207280D01*
X96420910Y-30207053D01*
X96427013Y-30202002D01*
X96427018Y-30202000D01*
X96474983Y-30150921D01*
X96496135Y-30129770D01*
X96500445Y-30124212D01*
X96504274Y-30119729D01*
X96536586Y-30085321D01*
X96546346Y-30067565D01*
X96557195Y-30051050D01*
X96569614Y-30035041D01*
X96588363Y-29991710D01*
X96590953Y-29986423D01*
X96613695Y-29945060D01*
X96618733Y-29925434D01*
X96625137Y-29906732D01*
X96633180Y-29888147D01*
X96633179Y-29888147D01*
X96633181Y-29888145D01*
X96640561Y-29841547D01*
X96641762Y-29835740D01*
X96653500Y-29790030D01*
X96653500Y-29790023D01*
X96654493Y-29782167D01*
X96655868Y-29782340D01*
X96673502Y-29722287D01*
X96727158Y-29675794D01*
X96735457Y-29672356D01*
X96766204Y-29660889D01*
X96835373Y-29609110D01*
X96883261Y-29573261D01*
X96919132Y-29525343D01*
X96975967Y-29482796D01*
X97046783Y-29477731D01*
X97109095Y-29511756D01*
X97120868Y-29525343D01*
X97156738Y-29573261D01*
X97273792Y-29660887D01*
X97273794Y-29660888D01*
X97273796Y-29660889D01*
X97328477Y-29681284D01*
X97410795Y-29711988D01*
X97410803Y-29711990D01*
X97471350Y-29718499D01*
X97471355Y-29718499D01*
X97471362Y-29718500D01*
X97471368Y-29718500D01*
X98568632Y-29718500D01*
X98568638Y-29718500D01*
X98568645Y-29718499D01*
X98568649Y-29718499D01*
X98629196Y-29711990D01*
X98629199Y-29711989D01*
X98629201Y-29711989D01*
X98633073Y-29710545D01*
X98670090Y-29696738D01*
X98766204Y-29660889D01*
X98835373Y-29609110D01*
X98883261Y-29573261D01*
X98919132Y-29525343D01*
X98975967Y-29482796D01*
X99046783Y-29477731D01*
X99109095Y-29511756D01*
G37*
%TD.AperFunction*%
%TA.AperFunction,Conductor*%
G36*
X95109095Y-29511756D02*
G01*
X95120869Y-29525344D01*
X95135875Y-29545390D01*
X95160685Y-29611910D01*
X95145593Y-29681284D01*
X95124101Y-29709993D01*
X92119500Y-32714595D01*
X92057188Y-32748621D01*
X92030405Y-32751500D01*
X86054500Y-32751500D01*
X85986379Y-32731498D01*
X85939886Y-32677842D01*
X85928500Y-32625500D01*
X85928500Y-32011367D01*
X85928499Y-32011350D01*
X85921990Y-31950803D01*
X85921988Y-31950795D01*
X85892924Y-31872875D01*
X85870889Y-31813796D01*
X85870888Y-31813794D01*
X85870887Y-31813792D01*
X85783261Y-31696738D01*
X85735343Y-31660868D01*
X85692796Y-31604033D01*
X85687731Y-31533217D01*
X85721756Y-31470905D01*
X85735343Y-31459132D01*
X85783261Y-31423261D01*
X85870887Y-31306207D01*
X85870887Y-31306206D01*
X85870889Y-31306204D01*
X85921989Y-31169201D01*
X85927457Y-31118346D01*
X85928499Y-31108649D01*
X85928500Y-31108632D01*
X85928500Y-30011367D01*
X85928499Y-30011350D01*
X85921990Y-29950803D01*
X85921988Y-29950795D01*
X85898765Y-29888533D01*
X85893699Y-29817718D01*
X85927724Y-29755405D01*
X85990036Y-29721380D01*
X86016820Y-29718500D01*
X86568632Y-29718500D01*
X86568638Y-29718500D01*
X86568645Y-29718499D01*
X86568649Y-29718499D01*
X86629196Y-29711990D01*
X86629199Y-29711989D01*
X86629201Y-29711989D01*
X86633073Y-29710545D01*
X86670090Y-29696738D01*
X86766204Y-29660889D01*
X86835373Y-29609110D01*
X86883261Y-29573261D01*
X86919132Y-29525343D01*
X86975967Y-29482796D01*
X87046783Y-29477731D01*
X87109095Y-29511756D01*
X87120868Y-29525343D01*
X87156738Y-29573261D01*
X87273792Y-29660887D01*
X87273794Y-29660888D01*
X87273796Y-29660889D01*
X87328477Y-29681284D01*
X87410795Y-29711988D01*
X87410803Y-29711990D01*
X87471350Y-29718499D01*
X87471355Y-29718499D01*
X87471362Y-29718500D01*
X87471368Y-29718500D01*
X88568632Y-29718500D01*
X88568638Y-29718500D01*
X88568645Y-29718499D01*
X88568649Y-29718499D01*
X88629196Y-29711990D01*
X88629199Y-29711989D01*
X88629201Y-29711989D01*
X88633073Y-29710545D01*
X88670090Y-29696738D01*
X88766204Y-29660889D01*
X88835373Y-29609110D01*
X88883261Y-29573261D01*
X88919132Y-29525343D01*
X88975967Y-29482796D01*
X89046783Y-29477731D01*
X89109095Y-29511756D01*
X89120868Y-29525343D01*
X89156738Y-29573261D01*
X89273792Y-29660887D01*
X89273794Y-29660888D01*
X89273796Y-29660889D01*
X89328477Y-29681284D01*
X89410795Y-29711988D01*
X89410803Y-29711990D01*
X89471350Y-29718499D01*
X89471355Y-29718499D01*
X89471362Y-29718500D01*
X89471368Y-29718500D01*
X90568632Y-29718500D01*
X90568638Y-29718500D01*
X90568645Y-29718499D01*
X90568649Y-29718499D01*
X90629196Y-29711990D01*
X90629199Y-29711989D01*
X90629201Y-29711989D01*
X90633073Y-29710545D01*
X90670090Y-29696738D01*
X90766204Y-29660889D01*
X90835373Y-29609110D01*
X90883261Y-29573261D01*
X90919132Y-29525343D01*
X90975967Y-29482796D01*
X91046783Y-29477731D01*
X91109095Y-29511756D01*
X91120868Y-29525343D01*
X91156738Y-29573261D01*
X91273792Y-29660887D01*
X91273794Y-29660888D01*
X91273796Y-29660889D01*
X91328477Y-29681284D01*
X91410795Y-29711988D01*
X91410803Y-29711990D01*
X91471350Y-29718499D01*
X91471355Y-29718499D01*
X91471362Y-29718500D01*
X91471368Y-29718500D01*
X92568632Y-29718500D01*
X92568638Y-29718500D01*
X92568645Y-29718499D01*
X92568649Y-29718499D01*
X92629196Y-29711990D01*
X92629199Y-29711989D01*
X92629201Y-29711989D01*
X92633073Y-29710545D01*
X92670090Y-29696738D01*
X92766204Y-29660889D01*
X92835373Y-29609110D01*
X92883261Y-29573261D01*
X92919132Y-29525343D01*
X92975967Y-29482796D01*
X93046783Y-29477731D01*
X93109095Y-29511756D01*
X93120868Y-29525343D01*
X93156738Y-29573261D01*
X93273792Y-29660887D01*
X93273794Y-29660888D01*
X93273796Y-29660889D01*
X93328477Y-29681284D01*
X93410795Y-29711988D01*
X93410803Y-29711990D01*
X93471350Y-29718499D01*
X93471355Y-29718499D01*
X93471362Y-29718500D01*
X93471368Y-29718500D01*
X94568632Y-29718500D01*
X94568638Y-29718500D01*
X94568645Y-29718499D01*
X94568649Y-29718499D01*
X94629196Y-29711990D01*
X94629199Y-29711989D01*
X94629201Y-29711989D01*
X94633073Y-29710545D01*
X94670090Y-29696738D01*
X94766204Y-29660889D01*
X94835373Y-29609110D01*
X94883261Y-29573261D01*
X94919132Y-29525343D01*
X94975967Y-29482796D01*
X95046783Y-29477731D01*
X95109095Y-29511756D01*
G37*
%TD.AperFunction*%
%TA.AperFunction,Conductor*%
G36*
X82165564Y-27038502D02*
G01*
X82212057Y-27092158D01*
X82222161Y-27162432D01*
X82192667Y-27227012D01*
X82171504Y-27246436D01*
X82123744Y-27281135D01*
X81995965Y-27423048D01*
X81995958Y-27423058D01*
X81900476Y-27588438D01*
X81900473Y-27588445D01*
X81859535Y-27714437D01*
X81819461Y-27773042D01*
X81754064Y-27800679D01*
X81739702Y-27801500D01*
X81109455Y-27801500D01*
X81005574Y-27812112D01*
X80837261Y-27867885D01*
X80686347Y-27960970D01*
X80686341Y-27960975D01*
X80560975Y-28086341D01*
X80560970Y-28086347D01*
X80467885Y-28237262D01*
X80412113Y-28405572D01*
X80412112Y-28405579D01*
X80401500Y-28509446D01*
X80401500Y-29497904D01*
X80381498Y-29566025D01*
X80364595Y-29586999D01*
X79819124Y-30132470D01*
X79756812Y-30166496D01*
X79685997Y-30161431D01*
X79629161Y-30118884D01*
X79604350Y-30052364D01*
X79606821Y-30016996D01*
X79607394Y-30014315D01*
X79617999Y-29910516D01*
X79618000Y-29910516D01*
X79618000Y-29464000D01*
X77452000Y-29464000D01*
X77452000Y-29910516D01*
X77462605Y-30014318D01*
X77462606Y-30014321D01*
X77518342Y-30182525D01*
X77611365Y-30333339D01*
X77611370Y-30333345D01*
X77736654Y-30458629D01*
X77736660Y-30458634D01*
X77887474Y-30551657D01*
X78055675Y-30607393D01*
X78154202Y-30617459D01*
X78219937Y-30644281D01*
X78260736Y-30702385D01*
X78263645Y-30773322D01*
X78240235Y-30820953D01*
X78235971Y-30826345D01*
X78155177Y-30957332D01*
X78102391Y-31004809D01*
X78032316Y-31016212D01*
X77973876Y-30993120D01*
X77926752Y-30958882D01*
X77752288Y-30881206D01*
X77565487Y-30841500D01*
X77374513Y-30841500D01*
X77187711Y-30881206D01*
X77013247Y-30958882D01*
X76858744Y-31071135D01*
X76730965Y-31213048D01*
X76730958Y-31213058D01*
X76635476Y-31378438D01*
X76635473Y-31378445D01*
X76576456Y-31560075D01*
X76576456Y-31560076D01*
X76575015Y-31573787D01*
X76548000Y-31639443D01*
X76489777Y-31680070D01*
X76418832Y-31682771D01*
X76360611Y-31649707D01*
X74769786Y-30058882D01*
X73666905Y-28956000D01*
X77452000Y-28956000D01*
X78281000Y-28956000D01*
X78281000Y-27802000D01*
X78789000Y-27802000D01*
X78789000Y-28956000D01*
X79618000Y-28956000D01*
X79618000Y-28509483D01*
X79607394Y-28405681D01*
X79607393Y-28405678D01*
X79551657Y-28237474D01*
X79458634Y-28086660D01*
X79458629Y-28086654D01*
X79333345Y-27961370D01*
X79333339Y-27961365D01*
X79182525Y-27868342D01*
X79014321Y-27812606D01*
X79014318Y-27812605D01*
X78910516Y-27802000D01*
X78789000Y-27802000D01*
X78281000Y-27802000D01*
X78159483Y-27802000D01*
X78055681Y-27812605D01*
X78055678Y-27812606D01*
X77887474Y-27868342D01*
X77736660Y-27961365D01*
X77736654Y-27961370D01*
X77611370Y-28086654D01*
X77611365Y-28086660D01*
X77518342Y-28237474D01*
X77462606Y-28405678D01*
X77462605Y-28405681D01*
X77452000Y-28509483D01*
X77452000Y-28956000D01*
X73666905Y-28956000D01*
X73023327Y-28312422D01*
X72989301Y-28250110D01*
X72990715Y-28190715D01*
X72999115Y-28159371D01*
X73018307Y-27940000D01*
X72999115Y-27720629D01*
X72942120Y-27507924D01*
X72849056Y-27308347D01*
X72784934Y-27216771D01*
X72762246Y-27149497D01*
X72779531Y-27080636D01*
X72831301Y-27032052D01*
X72888147Y-27018500D01*
X82097443Y-27018500D01*
X82165564Y-27038502D01*
G37*
%TD.AperFunction*%
%TD*%
M02*
