%TF.GenerationSoftware,KiCad,Pcbnew,7.0.9*%
%TF.CreationDate,2023-11-22T21:43:23-08:00*%
%TF.ProjectId,esp12-temp-sensore,65737031-322d-4746-956d-702d73656e73,rev?*%
%TF.SameCoordinates,Original*%
%TF.FileFunction,Legend,Bot*%
%TF.FilePolarity,Positive*%
%FSLAX46Y46*%
G04 Gerber Fmt 4.6, Leading zero omitted, Abs format (unit mm)*
G04 Created by KiCad (PCBNEW 7.0.9) date 2023-11-22 21:43:23*
%MOMM*%
%LPD*%
G01*
G04 APERTURE LIST*
%ADD10C,0.150000*%
%ADD11C,0.120000*%
G04 APERTURE END LIST*
D10*
X61305714Y-36491009D02*
X61162857Y-36538628D01*
X61162857Y-36538628D02*
X61115238Y-36586247D01*
X61115238Y-36586247D02*
X61067619Y-36681485D01*
X61067619Y-36681485D02*
X61067619Y-36824342D01*
X61067619Y-36824342D02*
X61115238Y-36919580D01*
X61115238Y-36919580D02*
X61162857Y-36967200D01*
X61162857Y-36967200D02*
X61258095Y-37014819D01*
X61258095Y-37014819D02*
X61639047Y-37014819D01*
X61639047Y-37014819D02*
X61639047Y-36014819D01*
X61639047Y-36014819D02*
X61305714Y-36014819D01*
X61305714Y-36014819D02*
X61210476Y-36062438D01*
X61210476Y-36062438D02*
X61162857Y-36110057D01*
X61162857Y-36110057D02*
X61115238Y-36205295D01*
X61115238Y-36205295D02*
X61115238Y-36300533D01*
X61115238Y-36300533D02*
X61162857Y-36395771D01*
X61162857Y-36395771D02*
X61210476Y-36443390D01*
X61210476Y-36443390D02*
X61305714Y-36491009D01*
X61305714Y-36491009D02*
X61639047Y-36491009D01*
X60781904Y-36014819D02*
X60210476Y-36014819D01*
X60496190Y-37014819D02*
X60496190Y-36014819D01*
X59353333Y-37014819D02*
X59924761Y-37014819D01*
X59639047Y-37014819D02*
X59639047Y-36014819D01*
X59639047Y-36014819D02*
X59734285Y-36157676D01*
X59734285Y-36157676D02*
X59829523Y-36252914D01*
X59829523Y-36252914D02*
X59924761Y-36300533D01*
D11*
%TO.C,BT1*%
X99520000Y-45610000D02*
X99520000Y-25510000D01*
X99520000Y-25510000D02*
X21520000Y-25510000D01*
X21520000Y-45610000D02*
X99520000Y-45610000D01*
X21520000Y-25510000D02*
X21520000Y-45610000D01*
%TD*%
M02*
