M48
; DRILL file {KiCad 7.0.9} date Wed 22 Nov 2023 09:43:18 PM PST
; FORMAT={-:-/ absolute / inch / decimal}
; #@! TF.CreationDate,2023-11-22T21:43:18-08:00
; #@! TF.GenerationSoftware,Kicad,Pcbnew,7.0.9
; #@! TF.FileFunction,Plated,1,2,PTH
FMAT,2
INCH
; #@! TA.AperFunction,Plated,PTH,ViaDrill
T1C0.0157
; #@! TA.AperFunction,Plated,PTH,ComponentDrill
T2C0.0315
; #@! TA.AperFunction,Plated,PTH,ComponentDrill
T3C0.0433
%
G90
G05
T1
X1.065Y-1.205
X1.065Y-1.395
X1.065Y-1.65
X1.345Y-1.205
X1.345Y-1.395
X1.345Y-1.645
X1.65Y-1.2
X1.65Y-1.395
X1.65Y-1.65
X1.99Y-1.395
X1.99Y-1.675
X2.1Y-1.1
X2.25Y-1.395
X2.255Y-1.675
X2.49Y-1.235
X2.95Y-1.15
X2.95Y-1.75
X3.0Y-1.2
X3.05Y-1.25
X3.05Y-1.35
X3.05Y-1.45
X3.05Y-1.55
X3.05Y-1.75
X3.185Y-1.35
X3.25Y-1.5004
X3.25Y-1.6
X3.25Y-1.7
X3.2573Y-1.1008
X3.3Y-1.7
X3.4Y-1.25
X3.4Y-1.35
X3.5Y-1.25
X3.5Y-1.35
X3.52Y-1.55
X3.6Y-1.25
X3.6Y-1.35
X3.6Y-1.45
X3.7Y-1.35
X3.7Y-1.45
X3.7Y-1.55
X3.705Y-1.1
X3.8Y-1.25
X3.8Y-1.35
X3.8Y-1.45
X3.8Y-1.55
X3.825Y-1.625
X3.895Y-1.45
X3.9Y-1.55
T2
X1.875Y-1.35
X1.875Y-1.45
X2.65Y-1.35
X2.65Y-1.45
X2.65Y-1.55
X2.65Y-1.65
T3
X1.9Y-1.1
X2.3Y-1.1
T0
M30
