%TF.GenerationSoftware,KiCad,Pcbnew,7.0.9*%
%TF.CreationDate,2023-11-22T21:43:23-08:00*%
%TF.ProjectId,esp12-temp-sensore,65737031-322d-4746-956d-702d73656e73,rev?*%
%TF.SameCoordinates,Original*%
%TF.FileFunction,Legend,Top*%
%TF.FilePolarity,Positive*%
%FSLAX46Y46*%
G04 Gerber Fmt 4.6, Leading zero omitted, Abs format (unit mm)*
G04 Created by KiCad (PCBNEW 7.0.9) date 2023-11-22 21:43:23*
%MOMM*%
%LPD*%
G01*
G04 APERTURE LIST*
%ADD10C,0.150000*%
%ADD11C,0.120000*%
%ADD12C,0.100000*%
G04 APERTURE END LIST*
D10*
X24593731Y-28311200D02*
X24498493Y-28358819D01*
X24498493Y-28358819D02*
X24308017Y-28358819D01*
X24308017Y-28358819D02*
X24212779Y-28311200D01*
X24212779Y-28311200D02*
X24165160Y-28215961D01*
X24165160Y-28215961D02*
X24165160Y-27835009D01*
X24165160Y-27835009D02*
X24212779Y-27739771D01*
X24212779Y-27739771D02*
X24308017Y-27692152D01*
X24308017Y-27692152D02*
X24498493Y-27692152D01*
X24498493Y-27692152D02*
X24593731Y-27739771D01*
X24593731Y-27739771D02*
X24641350Y-27835009D01*
X24641350Y-27835009D02*
X24641350Y-27930247D01*
X24641350Y-27930247D02*
X24165160Y-28025485D01*
X25022303Y-28311200D02*
X25117541Y-28358819D01*
X25117541Y-28358819D02*
X25308017Y-28358819D01*
X25308017Y-28358819D02*
X25403255Y-28311200D01*
X25403255Y-28311200D02*
X25450874Y-28215961D01*
X25450874Y-28215961D02*
X25450874Y-28168342D01*
X25450874Y-28168342D02*
X25403255Y-28073104D01*
X25403255Y-28073104D02*
X25308017Y-28025485D01*
X25308017Y-28025485D02*
X25165160Y-28025485D01*
X25165160Y-28025485D02*
X25069922Y-27977866D01*
X25069922Y-27977866D02*
X25022303Y-27882628D01*
X25022303Y-27882628D02*
X25022303Y-27835009D01*
X25022303Y-27835009D02*
X25069922Y-27739771D01*
X25069922Y-27739771D02*
X25165160Y-27692152D01*
X25165160Y-27692152D02*
X25308017Y-27692152D01*
X25308017Y-27692152D02*
X25403255Y-27739771D01*
X25879446Y-27692152D02*
X25879446Y-28692152D01*
X25879446Y-27739771D02*
X25974684Y-27692152D01*
X25974684Y-27692152D02*
X26165160Y-27692152D01*
X26165160Y-27692152D02*
X26260398Y-27739771D01*
X26260398Y-27739771D02*
X26308017Y-27787390D01*
X26308017Y-27787390D02*
X26355636Y-27882628D01*
X26355636Y-27882628D02*
X26355636Y-28168342D01*
X26355636Y-28168342D02*
X26308017Y-28263580D01*
X26308017Y-28263580D02*
X26260398Y-28311200D01*
X26260398Y-28311200D02*
X26165160Y-28358819D01*
X26165160Y-28358819D02*
X25974684Y-28358819D01*
X25974684Y-28358819D02*
X25879446Y-28311200D01*
X27308017Y-28358819D02*
X26736589Y-28358819D01*
X27022303Y-28358819D02*
X27022303Y-27358819D01*
X27022303Y-27358819D02*
X26927065Y-27501676D01*
X26927065Y-27501676D02*
X26831827Y-27596914D01*
X26831827Y-27596914D02*
X26736589Y-27644533D01*
X27688970Y-27454057D02*
X27736589Y-27406438D01*
X27736589Y-27406438D02*
X27831827Y-27358819D01*
X27831827Y-27358819D02*
X28069922Y-27358819D01*
X28069922Y-27358819D02*
X28165160Y-27406438D01*
X28165160Y-27406438D02*
X28212779Y-27454057D01*
X28212779Y-27454057D02*
X28260398Y-27549295D01*
X28260398Y-27549295D02*
X28260398Y-27644533D01*
X28260398Y-27644533D02*
X28212779Y-27787390D01*
X28212779Y-27787390D02*
X27641351Y-28358819D01*
X27641351Y-28358819D02*
X28260398Y-28358819D01*
X28688970Y-27977866D02*
X29450875Y-27977866D01*
X29784208Y-27692152D02*
X30165160Y-27692152D01*
X29927065Y-27358819D02*
X29927065Y-28215961D01*
X29927065Y-28215961D02*
X29974684Y-28311200D01*
X29974684Y-28311200D02*
X30069922Y-28358819D01*
X30069922Y-28358819D02*
X30165160Y-28358819D01*
X30879446Y-28311200D02*
X30784208Y-28358819D01*
X30784208Y-28358819D02*
X30593732Y-28358819D01*
X30593732Y-28358819D02*
X30498494Y-28311200D01*
X30498494Y-28311200D02*
X30450875Y-28215961D01*
X30450875Y-28215961D02*
X30450875Y-27835009D01*
X30450875Y-27835009D02*
X30498494Y-27739771D01*
X30498494Y-27739771D02*
X30593732Y-27692152D01*
X30593732Y-27692152D02*
X30784208Y-27692152D01*
X30784208Y-27692152D02*
X30879446Y-27739771D01*
X30879446Y-27739771D02*
X30927065Y-27835009D01*
X30927065Y-27835009D02*
X30927065Y-27930247D01*
X30927065Y-27930247D02*
X30450875Y-28025485D01*
X31355637Y-28358819D02*
X31355637Y-27692152D01*
X31355637Y-27787390D02*
X31403256Y-27739771D01*
X31403256Y-27739771D02*
X31498494Y-27692152D01*
X31498494Y-27692152D02*
X31641351Y-27692152D01*
X31641351Y-27692152D02*
X31736589Y-27739771D01*
X31736589Y-27739771D02*
X31784208Y-27835009D01*
X31784208Y-27835009D02*
X31784208Y-28358819D01*
X31784208Y-27835009D02*
X31831827Y-27739771D01*
X31831827Y-27739771D02*
X31927065Y-27692152D01*
X31927065Y-27692152D02*
X32069922Y-27692152D01*
X32069922Y-27692152D02*
X32165161Y-27739771D01*
X32165161Y-27739771D02*
X32212780Y-27835009D01*
X32212780Y-27835009D02*
X32212780Y-28358819D01*
X32688970Y-27692152D02*
X32688970Y-28692152D01*
X32688970Y-27739771D02*
X32784208Y-27692152D01*
X32784208Y-27692152D02*
X32974684Y-27692152D01*
X32974684Y-27692152D02*
X33069922Y-27739771D01*
X33069922Y-27739771D02*
X33117541Y-27787390D01*
X33117541Y-27787390D02*
X33165160Y-27882628D01*
X33165160Y-27882628D02*
X33165160Y-28168342D01*
X33165160Y-28168342D02*
X33117541Y-28263580D01*
X33117541Y-28263580D02*
X33069922Y-28311200D01*
X33069922Y-28311200D02*
X32974684Y-28358819D01*
X32974684Y-28358819D02*
X32784208Y-28358819D01*
X32784208Y-28358819D02*
X32688970Y-28311200D01*
X33593732Y-27977866D02*
X34355637Y-27977866D01*
X34784208Y-28311200D02*
X34879446Y-28358819D01*
X34879446Y-28358819D02*
X35069922Y-28358819D01*
X35069922Y-28358819D02*
X35165160Y-28311200D01*
X35165160Y-28311200D02*
X35212779Y-28215961D01*
X35212779Y-28215961D02*
X35212779Y-28168342D01*
X35212779Y-28168342D02*
X35165160Y-28073104D01*
X35165160Y-28073104D02*
X35069922Y-28025485D01*
X35069922Y-28025485D02*
X34927065Y-28025485D01*
X34927065Y-28025485D02*
X34831827Y-27977866D01*
X34831827Y-27977866D02*
X34784208Y-27882628D01*
X34784208Y-27882628D02*
X34784208Y-27835009D01*
X34784208Y-27835009D02*
X34831827Y-27739771D01*
X34831827Y-27739771D02*
X34927065Y-27692152D01*
X34927065Y-27692152D02*
X35069922Y-27692152D01*
X35069922Y-27692152D02*
X35165160Y-27739771D01*
X36022303Y-28311200D02*
X35927065Y-28358819D01*
X35927065Y-28358819D02*
X35736589Y-28358819D01*
X35736589Y-28358819D02*
X35641351Y-28311200D01*
X35641351Y-28311200D02*
X35593732Y-28215961D01*
X35593732Y-28215961D02*
X35593732Y-27835009D01*
X35593732Y-27835009D02*
X35641351Y-27739771D01*
X35641351Y-27739771D02*
X35736589Y-27692152D01*
X35736589Y-27692152D02*
X35927065Y-27692152D01*
X35927065Y-27692152D02*
X36022303Y-27739771D01*
X36022303Y-27739771D02*
X36069922Y-27835009D01*
X36069922Y-27835009D02*
X36069922Y-27930247D01*
X36069922Y-27930247D02*
X35593732Y-28025485D01*
X36498494Y-27692152D02*
X36498494Y-28358819D01*
X36498494Y-27787390D02*
X36546113Y-27739771D01*
X36546113Y-27739771D02*
X36641351Y-27692152D01*
X36641351Y-27692152D02*
X36784208Y-27692152D01*
X36784208Y-27692152D02*
X36879446Y-27739771D01*
X36879446Y-27739771D02*
X36927065Y-27835009D01*
X36927065Y-27835009D02*
X36927065Y-28358819D01*
X37355637Y-28311200D02*
X37450875Y-28358819D01*
X37450875Y-28358819D02*
X37641351Y-28358819D01*
X37641351Y-28358819D02*
X37736589Y-28311200D01*
X37736589Y-28311200D02*
X37784208Y-28215961D01*
X37784208Y-28215961D02*
X37784208Y-28168342D01*
X37784208Y-28168342D02*
X37736589Y-28073104D01*
X37736589Y-28073104D02*
X37641351Y-28025485D01*
X37641351Y-28025485D02*
X37498494Y-28025485D01*
X37498494Y-28025485D02*
X37403256Y-27977866D01*
X37403256Y-27977866D02*
X37355637Y-27882628D01*
X37355637Y-27882628D02*
X37355637Y-27835009D01*
X37355637Y-27835009D02*
X37403256Y-27739771D01*
X37403256Y-27739771D02*
X37498494Y-27692152D01*
X37498494Y-27692152D02*
X37641351Y-27692152D01*
X37641351Y-27692152D02*
X37736589Y-27739771D01*
X38355637Y-28358819D02*
X38260399Y-28311200D01*
X38260399Y-28311200D02*
X38212780Y-28263580D01*
X38212780Y-28263580D02*
X38165161Y-28168342D01*
X38165161Y-28168342D02*
X38165161Y-27882628D01*
X38165161Y-27882628D02*
X38212780Y-27787390D01*
X38212780Y-27787390D02*
X38260399Y-27739771D01*
X38260399Y-27739771D02*
X38355637Y-27692152D01*
X38355637Y-27692152D02*
X38498494Y-27692152D01*
X38498494Y-27692152D02*
X38593732Y-27739771D01*
X38593732Y-27739771D02*
X38641351Y-27787390D01*
X38641351Y-27787390D02*
X38688970Y-27882628D01*
X38688970Y-27882628D02*
X38688970Y-28168342D01*
X38688970Y-28168342D02*
X38641351Y-28263580D01*
X38641351Y-28263580D02*
X38593732Y-28311200D01*
X38593732Y-28311200D02*
X38498494Y-28358819D01*
X38498494Y-28358819D02*
X38355637Y-28358819D01*
X39117542Y-28358819D02*
X39117542Y-27692152D01*
X39117542Y-27882628D02*
X39165161Y-27787390D01*
X39165161Y-27787390D02*
X39212780Y-27739771D01*
X39212780Y-27739771D02*
X39308018Y-27692152D01*
X39308018Y-27692152D02*
X39403256Y-27692152D01*
X24784207Y-29968819D02*
X24450874Y-29492628D01*
X24212779Y-29968819D02*
X24212779Y-28968819D01*
X24212779Y-28968819D02*
X24593731Y-28968819D01*
X24593731Y-28968819D02*
X24688969Y-29016438D01*
X24688969Y-29016438D02*
X24736588Y-29064057D01*
X24736588Y-29064057D02*
X24784207Y-29159295D01*
X24784207Y-29159295D02*
X24784207Y-29302152D01*
X24784207Y-29302152D02*
X24736588Y-29397390D01*
X24736588Y-29397390D02*
X24688969Y-29445009D01*
X24688969Y-29445009D02*
X24593731Y-29492628D01*
X24593731Y-29492628D02*
X24212779Y-29492628D01*
X25212779Y-29968819D02*
X25212779Y-29302152D01*
X25212779Y-28968819D02*
X25165160Y-29016438D01*
X25165160Y-29016438D02*
X25212779Y-29064057D01*
X25212779Y-29064057D02*
X25260398Y-29016438D01*
X25260398Y-29016438D02*
X25212779Y-28968819D01*
X25212779Y-28968819D02*
X25212779Y-29064057D01*
X25831826Y-29968819D02*
X25736588Y-29921200D01*
X25736588Y-29921200D02*
X25688969Y-29873580D01*
X25688969Y-29873580D02*
X25641350Y-29778342D01*
X25641350Y-29778342D02*
X25641350Y-29492628D01*
X25641350Y-29492628D02*
X25688969Y-29397390D01*
X25688969Y-29397390D02*
X25736588Y-29349771D01*
X25736588Y-29349771D02*
X25831826Y-29302152D01*
X25831826Y-29302152D02*
X25974683Y-29302152D01*
X25974683Y-29302152D02*
X26069921Y-29349771D01*
X26069921Y-29349771D02*
X26117540Y-29397390D01*
X26117540Y-29397390D02*
X26165159Y-29492628D01*
X26165159Y-29492628D02*
X26165159Y-29778342D01*
X26165159Y-29778342D02*
X26117540Y-29873580D01*
X26117540Y-29873580D02*
X26069921Y-29921200D01*
X26069921Y-29921200D02*
X25974683Y-29968819D01*
X25974683Y-29968819D02*
X25831826Y-29968819D01*
X26593731Y-29302152D02*
X26593731Y-29968819D01*
X26593731Y-29397390D02*
X26641350Y-29349771D01*
X26641350Y-29349771D02*
X26736588Y-29302152D01*
X26736588Y-29302152D02*
X26879445Y-29302152D01*
X26879445Y-29302152D02*
X26974683Y-29349771D01*
X26974683Y-29349771D02*
X27022302Y-29445009D01*
X27022302Y-29445009D02*
X27022302Y-29968819D01*
X28784207Y-29016438D02*
X28688969Y-28968819D01*
X28688969Y-28968819D02*
X28546112Y-28968819D01*
X28546112Y-28968819D02*
X28403255Y-29016438D01*
X28403255Y-29016438D02*
X28308017Y-29111676D01*
X28308017Y-29111676D02*
X28260398Y-29206914D01*
X28260398Y-29206914D02*
X28212779Y-29397390D01*
X28212779Y-29397390D02*
X28212779Y-29540247D01*
X28212779Y-29540247D02*
X28260398Y-29730723D01*
X28260398Y-29730723D02*
X28308017Y-29825961D01*
X28308017Y-29825961D02*
X28403255Y-29921200D01*
X28403255Y-29921200D02*
X28546112Y-29968819D01*
X28546112Y-29968819D02*
X28641350Y-29968819D01*
X28641350Y-29968819D02*
X28784207Y-29921200D01*
X28784207Y-29921200D02*
X28831826Y-29873580D01*
X28831826Y-29873580D02*
X28831826Y-29540247D01*
X28831826Y-29540247D02*
X28641350Y-29540247D01*
X29260398Y-29968819D02*
X29260398Y-29302152D01*
X29260398Y-29492628D02*
X29308017Y-29397390D01*
X29308017Y-29397390D02*
X29355636Y-29349771D01*
X29355636Y-29349771D02*
X29450874Y-29302152D01*
X29450874Y-29302152D02*
X29546112Y-29302152D01*
X30022303Y-29968819D02*
X29927065Y-29921200D01*
X29927065Y-29921200D02*
X29879446Y-29873580D01*
X29879446Y-29873580D02*
X29831827Y-29778342D01*
X29831827Y-29778342D02*
X29831827Y-29492628D01*
X29831827Y-29492628D02*
X29879446Y-29397390D01*
X29879446Y-29397390D02*
X29927065Y-29349771D01*
X29927065Y-29349771D02*
X30022303Y-29302152D01*
X30022303Y-29302152D02*
X30165160Y-29302152D01*
X30165160Y-29302152D02*
X30260398Y-29349771D01*
X30260398Y-29349771D02*
X30308017Y-29397390D01*
X30308017Y-29397390D02*
X30355636Y-29492628D01*
X30355636Y-29492628D02*
X30355636Y-29778342D01*
X30355636Y-29778342D02*
X30308017Y-29873580D01*
X30308017Y-29873580D02*
X30260398Y-29921200D01*
X30260398Y-29921200D02*
X30165160Y-29968819D01*
X30165160Y-29968819D02*
X30022303Y-29968819D01*
X30784208Y-29302152D02*
X30784208Y-29968819D01*
X30784208Y-29397390D02*
X30831827Y-29349771D01*
X30831827Y-29349771D02*
X30927065Y-29302152D01*
X30927065Y-29302152D02*
X31069922Y-29302152D01*
X31069922Y-29302152D02*
X31165160Y-29349771D01*
X31165160Y-29349771D02*
X31212779Y-29445009D01*
X31212779Y-29445009D02*
X31212779Y-29968819D01*
X31688970Y-29968819D02*
X31688970Y-28968819D01*
X31688970Y-29349771D02*
X31784208Y-29302152D01*
X31784208Y-29302152D02*
X31974684Y-29302152D01*
X31974684Y-29302152D02*
X32069922Y-29349771D01*
X32069922Y-29349771D02*
X32117541Y-29397390D01*
X32117541Y-29397390D02*
X32165160Y-29492628D01*
X32165160Y-29492628D02*
X32165160Y-29778342D01*
X32165160Y-29778342D02*
X32117541Y-29873580D01*
X32117541Y-29873580D02*
X32069922Y-29921200D01*
X32069922Y-29921200D02*
X31974684Y-29968819D01*
X31974684Y-29968819D02*
X31784208Y-29968819D01*
X31784208Y-29968819D02*
X31688970Y-29921200D01*
X32974684Y-29921200D02*
X32879446Y-29968819D01*
X32879446Y-29968819D02*
X32688970Y-29968819D01*
X32688970Y-29968819D02*
X32593732Y-29921200D01*
X32593732Y-29921200D02*
X32546113Y-29825961D01*
X32546113Y-29825961D02*
X32546113Y-29445009D01*
X32546113Y-29445009D02*
X32593732Y-29349771D01*
X32593732Y-29349771D02*
X32688970Y-29302152D01*
X32688970Y-29302152D02*
X32879446Y-29302152D01*
X32879446Y-29302152D02*
X32974684Y-29349771D01*
X32974684Y-29349771D02*
X33022303Y-29445009D01*
X33022303Y-29445009D02*
X33022303Y-29540247D01*
X33022303Y-29540247D02*
X32546113Y-29635485D01*
X33450875Y-29968819D02*
X33450875Y-29302152D01*
X33450875Y-29492628D02*
X33498494Y-29397390D01*
X33498494Y-29397390D02*
X33546113Y-29349771D01*
X33546113Y-29349771D02*
X33641351Y-29302152D01*
X33641351Y-29302152D02*
X33736589Y-29302152D01*
X34498494Y-29302152D02*
X34498494Y-30111676D01*
X34498494Y-30111676D02*
X34450875Y-30206914D01*
X34450875Y-30206914D02*
X34403256Y-30254533D01*
X34403256Y-30254533D02*
X34308018Y-30302152D01*
X34308018Y-30302152D02*
X34165161Y-30302152D01*
X34165161Y-30302152D02*
X34069923Y-30254533D01*
X34498494Y-29921200D02*
X34403256Y-29968819D01*
X34403256Y-29968819D02*
X34212780Y-29968819D01*
X34212780Y-29968819D02*
X34117542Y-29921200D01*
X34117542Y-29921200D02*
X34069923Y-29873580D01*
X34069923Y-29873580D02*
X34022304Y-29778342D01*
X34022304Y-29778342D02*
X34022304Y-29492628D01*
X34022304Y-29492628D02*
X34069923Y-29397390D01*
X34069923Y-29397390D02*
X34117542Y-29349771D01*
X34117542Y-29349771D02*
X34212780Y-29302152D01*
X34212780Y-29302152D02*
X34403256Y-29302152D01*
X34403256Y-29302152D02*
X34498494Y-29349771D01*
X35688971Y-29064057D02*
X35736590Y-29016438D01*
X35736590Y-29016438D02*
X35831828Y-28968819D01*
X35831828Y-28968819D02*
X36069923Y-28968819D01*
X36069923Y-28968819D02*
X36165161Y-29016438D01*
X36165161Y-29016438D02*
X36212780Y-29064057D01*
X36212780Y-29064057D02*
X36260399Y-29159295D01*
X36260399Y-29159295D02*
X36260399Y-29254533D01*
X36260399Y-29254533D02*
X36212780Y-29397390D01*
X36212780Y-29397390D02*
X35641352Y-29968819D01*
X35641352Y-29968819D02*
X36260399Y-29968819D01*
X36879447Y-28968819D02*
X36974685Y-28968819D01*
X36974685Y-28968819D02*
X37069923Y-29016438D01*
X37069923Y-29016438D02*
X37117542Y-29064057D01*
X37117542Y-29064057D02*
X37165161Y-29159295D01*
X37165161Y-29159295D02*
X37212780Y-29349771D01*
X37212780Y-29349771D02*
X37212780Y-29587866D01*
X37212780Y-29587866D02*
X37165161Y-29778342D01*
X37165161Y-29778342D02*
X37117542Y-29873580D01*
X37117542Y-29873580D02*
X37069923Y-29921200D01*
X37069923Y-29921200D02*
X36974685Y-29968819D01*
X36974685Y-29968819D02*
X36879447Y-29968819D01*
X36879447Y-29968819D02*
X36784209Y-29921200D01*
X36784209Y-29921200D02*
X36736590Y-29873580D01*
X36736590Y-29873580D02*
X36688971Y-29778342D01*
X36688971Y-29778342D02*
X36641352Y-29587866D01*
X36641352Y-29587866D02*
X36641352Y-29349771D01*
X36641352Y-29349771D02*
X36688971Y-29159295D01*
X36688971Y-29159295D02*
X36736590Y-29064057D01*
X36736590Y-29064057D02*
X36784209Y-29016438D01*
X36784209Y-29016438D02*
X36879447Y-28968819D01*
X37593733Y-29064057D02*
X37641352Y-29016438D01*
X37641352Y-29016438D02*
X37736590Y-28968819D01*
X37736590Y-28968819D02*
X37974685Y-28968819D01*
X37974685Y-28968819D02*
X38069923Y-29016438D01*
X38069923Y-29016438D02*
X38117542Y-29064057D01*
X38117542Y-29064057D02*
X38165161Y-29159295D01*
X38165161Y-29159295D02*
X38165161Y-29254533D01*
X38165161Y-29254533D02*
X38117542Y-29397390D01*
X38117542Y-29397390D02*
X37546114Y-29968819D01*
X37546114Y-29968819D02*
X38165161Y-29968819D01*
X38498495Y-28968819D02*
X39117542Y-28968819D01*
X39117542Y-28968819D02*
X38784209Y-29349771D01*
X38784209Y-29349771D02*
X38927066Y-29349771D01*
X38927066Y-29349771D02*
X39022304Y-29397390D01*
X39022304Y-29397390D02*
X39069923Y-29445009D01*
X39069923Y-29445009D02*
X39117542Y-29540247D01*
X39117542Y-29540247D02*
X39117542Y-29778342D01*
X39117542Y-29778342D02*
X39069923Y-29873580D01*
X39069923Y-29873580D02*
X39022304Y-29921200D01*
X39022304Y-29921200D02*
X38927066Y-29968819D01*
X38927066Y-29968819D02*
X38641352Y-29968819D01*
X38641352Y-29968819D02*
X38546114Y-29921200D01*
X38546114Y-29921200D02*
X38498495Y-29873580D01*
X27927493Y-38239819D02*
X27927493Y-38954104D01*
X27927493Y-38954104D02*
X27879874Y-39096961D01*
X27879874Y-39096961D02*
X27784636Y-39192200D01*
X27784636Y-39192200D02*
X27641779Y-39239819D01*
X27641779Y-39239819D02*
X27546541Y-39239819D01*
X28879874Y-39239819D02*
X28403684Y-39239819D01*
X28403684Y-39239819D02*
X28403684Y-38239819D01*
X29784636Y-39144580D02*
X29737017Y-39192200D01*
X29737017Y-39192200D02*
X29594160Y-39239819D01*
X29594160Y-39239819D02*
X29498922Y-39239819D01*
X29498922Y-39239819D02*
X29356065Y-39192200D01*
X29356065Y-39192200D02*
X29260827Y-39096961D01*
X29260827Y-39096961D02*
X29213208Y-39001723D01*
X29213208Y-39001723D02*
X29165589Y-38811247D01*
X29165589Y-38811247D02*
X29165589Y-38668390D01*
X29165589Y-38668390D02*
X29213208Y-38477914D01*
X29213208Y-38477914D02*
X29260827Y-38382676D01*
X29260827Y-38382676D02*
X29356065Y-38287438D01*
X29356065Y-38287438D02*
X29498922Y-38239819D01*
X29498922Y-38239819D02*
X29594160Y-38239819D01*
X29594160Y-38239819D02*
X29737017Y-38287438D01*
X29737017Y-38287438D02*
X29784636Y-38335057D01*
X30498922Y-38239819D02*
X30498922Y-38954104D01*
X30498922Y-38954104D02*
X30451303Y-39096961D01*
X30451303Y-39096961D02*
X30356065Y-39192200D01*
X30356065Y-39192200D02*
X30213208Y-39239819D01*
X30213208Y-39239819D02*
X30117970Y-39239819D01*
X31451303Y-39239819D02*
X30975113Y-39239819D01*
X30975113Y-39239819D02*
X30975113Y-38239819D01*
X32356065Y-39144580D02*
X32308446Y-39192200D01*
X32308446Y-39192200D02*
X32165589Y-39239819D01*
X32165589Y-39239819D02*
X32070351Y-39239819D01*
X32070351Y-39239819D02*
X31927494Y-39192200D01*
X31927494Y-39192200D02*
X31832256Y-39096961D01*
X31832256Y-39096961D02*
X31784637Y-39001723D01*
X31784637Y-39001723D02*
X31737018Y-38811247D01*
X31737018Y-38811247D02*
X31737018Y-38668390D01*
X31737018Y-38668390D02*
X31784637Y-38477914D01*
X31784637Y-38477914D02*
X31832256Y-38382676D01*
X31832256Y-38382676D02*
X31927494Y-38287438D01*
X31927494Y-38287438D02*
X32070351Y-38239819D01*
X32070351Y-38239819D02*
X32165589Y-38239819D01*
X32165589Y-38239819D02*
X32308446Y-38287438D01*
X32308446Y-38287438D02*
X32356065Y-38335057D01*
X33070351Y-38239819D02*
X33070351Y-38954104D01*
X33070351Y-38954104D02*
X33022732Y-39096961D01*
X33022732Y-39096961D02*
X32927494Y-39192200D01*
X32927494Y-39192200D02*
X32784637Y-39239819D01*
X32784637Y-39239819D02*
X32689399Y-39239819D01*
X34022732Y-39239819D02*
X33546542Y-39239819D01*
X33546542Y-39239819D02*
X33546542Y-38239819D01*
X34927494Y-39144580D02*
X34879875Y-39192200D01*
X34879875Y-39192200D02*
X34737018Y-39239819D01*
X34737018Y-39239819D02*
X34641780Y-39239819D01*
X34641780Y-39239819D02*
X34498923Y-39192200D01*
X34498923Y-39192200D02*
X34403685Y-39096961D01*
X34403685Y-39096961D02*
X34356066Y-39001723D01*
X34356066Y-39001723D02*
X34308447Y-38811247D01*
X34308447Y-38811247D02*
X34308447Y-38668390D01*
X34308447Y-38668390D02*
X34356066Y-38477914D01*
X34356066Y-38477914D02*
X34403685Y-38382676D01*
X34403685Y-38382676D02*
X34498923Y-38287438D01*
X34498923Y-38287438D02*
X34641780Y-38239819D01*
X34641780Y-38239819D02*
X34737018Y-38239819D01*
X34737018Y-38239819D02*
X34879875Y-38287438D01*
X34879875Y-38287438D02*
X34927494Y-38335057D01*
X35641780Y-38239819D02*
X35641780Y-38954104D01*
X35641780Y-38954104D02*
X35594161Y-39096961D01*
X35594161Y-39096961D02*
X35498923Y-39192200D01*
X35498923Y-39192200D02*
X35356066Y-39239819D01*
X35356066Y-39239819D02*
X35260828Y-39239819D01*
X36594161Y-39239819D02*
X36117971Y-39239819D01*
X36117971Y-39239819D02*
X36117971Y-38239819D01*
X37498923Y-39144580D02*
X37451304Y-39192200D01*
X37451304Y-39192200D02*
X37308447Y-39239819D01*
X37308447Y-39239819D02*
X37213209Y-39239819D01*
X37213209Y-39239819D02*
X37070352Y-39192200D01*
X37070352Y-39192200D02*
X36975114Y-39096961D01*
X36975114Y-39096961D02*
X36927495Y-39001723D01*
X36927495Y-39001723D02*
X36879876Y-38811247D01*
X36879876Y-38811247D02*
X36879876Y-38668390D01*
X36879876Y-38668390D02*
X36927495Y-38477914D01*
X36927495Y-38477914D02*
X36975114Y-38382676D01*
X36975114Y-38382676D02*
X37070352Y-38287438D01*
X37070352Y-38287438D02*
X37213209Y-38239819D01*
X37213209Y-38239819D02*
X37308447Y-38239819D01*
X37308447Y-38239819D02*
X37451304Y-38287438D01*
X37451304Y-38287438D02*
X37498923Y-38335057D01*
X75936705Y-39824819D02*
X75603372Y-39348628D01*
X75365277Y-39824819D02*
X75365277Y-38824819D01*
X75365277Y-38824819D02*
X75746229Y-38824819D01*
X75746229Y-38824819D02*
X75841467Y-38872438D01*
X75841467Y-38872438D02*
X75889086Y-38920057D01*
X75889086Y-38920057D02*
X75936705Y-39015295D01*
X75936705Y-39015295D02*
X75936705Y-39158152D01*
X75936705Y-39158152D02*
X75889086Y-39253390D01*
X75889086Y-39253390D02*
X75841467Y-39301009D01*
X75841467Y-39301009D02*
X75746229Y-39348628D01*
X75746229Y-39348628D02*
X75365277Y-39348628D01*
X76270039Y-38824819D02*
X76936705Y-38824819D01*
X76936705Y-38824819D02*
X76508134Y-39824819D01*
X73591009Y-33011904D02*
X73591009Y-33345237D01*
X74114819Y-33345237D02*
X73114819Y-33345237D01*
X73114819Y-33345237D02*
X73114819Y-32869047D01*
X74114819Y-32011904D02*
X74114819Y-32488094D01*
X74114819Y-32488094D02*
X73114819Y-32488094D01*
X74067200Y-31726189D02*
X74114819Y-31583332D01*
X74114819Y-31583332D02*
X74114819Y-31345237D01*
X74114819Y-31345237D02*
X74067200Y-31249999D01*
X74067200Y-31249999D02*
X74019580Y-31202380D01*
X74019580Y-31202380D02*
X73924342Y-31154761D01*
X73924342Y-31154761D02*
X73829104Y-31154761D01*
X73829104Y-31154761D02*
X73733866Y-31202380D01*
X73733866Y-31202380D02*
X73686247Y-31249999D01*
X73686247Y-31249999D02*
X73638628Y-31345237D01*
X73638628Y-31345237D02*
X73591009Y-31535713D01*
X73591009Y-31535713D02*
X73543390Y-31630951D01*
X73543390Y-31630951D02*
X73495771Y-31678570D01*
X73495771Y-31678570D02*
X73400533Y-31726189D01*
X73400533Y-31726189D02*
X73305295Y-31726189D01*
X73305295Y-31726189D02*
X73210057Y-31678570D01*
X73210057Y-31678570D02*
X73162438Y-31630951D01*
X73162438Y-31630951D02*
X73114819Y-31535713D01*
X73114819Y-31535713D02*
X73114819Y-31297618D01*
X73114819Y-31297618D02*
X73162438Y-31154761D01*
X74114819Y-30726189D02*
X73114819Y-30726189D01*
X73591009Y-30726189D02*
X73591009Y-30154761D01*
X74114819Y-30154761D02*
X73114819Y-30154761D01*
X32689104Y-36274285D02*
X32689104Y-35798095D01*
X32974819Y-36369523D02*
X31974819Y-36036190D01*
X31974819Y-36036190D02*
X32974819Y-35702857D01*
X32974819Y-34845714D02*
X32974819Y-35417142D01*
X32974819Y-35131428D02*
X31974819Y-35131428D01*
X31974819Y-35131428D02*
X32117676Y-35226666D01*
X32117676Y-35226666D02*
X32212914Y-35321904D01*
X32212914Y-35321904D02*
X32260533Y-35417142D01*
X72223333Y-42269580D02*
X72175714Y-42317200D01*
X72175714Y-42317200D02*
X72032857Y-42364819D01*
X72032857Y-42364819D02*
X71937619Y-42364819D01*
X71937619Y-42364819D02*
X71794762Y-42317200D01*
X71794762Y-42317200D02*
X71699524Y-42221961D01*
X71699524Y-42221961D02*
X71651905Y-42126723D01*
X71651905Y-42126723D02*
X71604286Y-41936247D01*
X71604286Y-41936247D02*
X71604286Y-41793390D01*
X71604286Y-41793390D02*
X71651905Y-41602914D01*
X71651905Y-41602914D02*
X71699524Y-41507676D01*
X71699524Y-41507676D02*
X71794762Y-41412438D01*
X71794762Y-41412438D02*
X71937619Y-41364819D01*
X71937619Y-41364819D02*
X72032857Y-41364819D01*
X72032857Y-41364819D02*
X72175714Y-41412438D01*
X72175714Y-41412438D02*
X72223333Y-41460057D01*
X73175714Y-42364819D02*
X72604286Y-42364819D01*
X72890000Y-42364819D02*
X72890000Y-41364819D01*
X72890000Y-41364819D02*
X72794762Y-41507676D01*
X72794762Y-41507676D02*
X72699524Y-41602914D01*
X72699524Y-41602914D02*
X72604286Y-41650533D01*
X76033333Y-29569580D02*
X75985714Y-29617200D01*
X75985714Y-29617200D02*
X75842857Y-29664819D01*
X75842857Y-29664819D02*
X75747619Y-29664819D01*
X75747619Y-29664819D02*
X75604762Y-29617200D01*
X75604762Y-29617200D02*
X75509524Y-29521961D01*
X75509524Y-29521961D02*
X75461905Y-29426723D01*
X75461905Y-29426723D02*
X75414286Y-29236247D01*
X75414286Y-29236247D02*
X75414286Y-29093390D01*
X75414286Y-29093390D02*
X75461905Y-28902914D01*
X75461905Y-28902914D02*
X75509524Y-28807676D01*
X75509524Y-28807676D02*
X75604762Y-28712438D01*
X75604762Y-28712438D02*
X75747619Y-28664819D01*
X75747619Y-28664819D02*
X75842857Y-28664819D01*
X75842857Y-28664819D02*
X75985714Y-28712438D01*
X75985714Y-28712438D02*
X76033333Y-28760057D01*
X76414286Y-28760057D02*
X76461905Y-28712438D01*
X76461905Y-28712438D02*
X76557143Y-28664819D01*
X76557143Y-28664819D02*
X76795238Y-28664819D01*
X76795238Y-28664819D02*
X76890476Y-28712438D01*
X76890476Y-28712438D02*
X76938095Y-28760057D01*
X76938095Y-28760057D02*
X76985714Y-28855295D01*
X76985714Y-28855295D02*
X76985714Y-28950533D01*
X76985714Y-28950533D02*
X76938095Y-29093390D01*
X76938095Y-29093390D02*
X76366667Y-29664819D01*
X76366667Y-29664819D02*
X76985714Y-29664819D01*
X75936705Y-32204819D02*
X75603372Y-31728628D01*
X75365277Y-32204819D02*
X75365277Y-31204819D01*
X75365277Y-31204819D02*
X75746229Y-31204819D01*
X75746229Y-31204819D02*
X75841467Y-31252438D01*
X75841467Y-31252438D02*
X75889086Y-31300057D01*
X75889086Y-31300057D02*
X75936705Y-31395295D01*
X75936705Y-31395295D02*
X75936705Y-31538152D01*
X75936705Y-31538152D02*
X75889086Y-31633390D01*
X75889086Y-31633390D02*
X75841467Y-31681009D01*
X75841467Y-31681009D02*
X75746229Y-31728628D01*
X75746229Y-31728628D02*
X75365277Y-31728628D01*
X76793848Y-31204819D02*
X76603372Y-31204819D01*
X76603372Y-31204819D02*
X76508134Y-31252438D01*
X76508134Y-31252438D02*
X76460515Y-31300057D01*
X76460515Y-31300057D02*
X76365277Y-31442914D01*
X76365277Y-31442914D02*
X76317658Y-31633390D01*
X76317658Y-31633390D02*
X76317658Y-32014342D01*
X76317658Y-32014342D02*
X76365277Y-32109580D01*
X76365277Y-32109580D02*
X76412896Y-32157200D01*
X76412896Y-32157200D02*
X76508134Y-32204819D01*
X76508134Y-32204819D02*
X76698610Y-32204819D01*
X76698610Y-32204819D02*
X76793848Y-32157200D01*
X76793848Y-32157200D02*
X76841467Y-32109580D01*
X76841467Y-32109580D02*
X76889086Y-32014342D01*
X76889086Y-32014342D02*
X76889086Y-31776247D01*
X76889086Y-31776247D02*
X76841467Y-31681009D01*
X76841467Y-31681009D02*
X76793848Y-31633390D01*
X76793848Y-31633390D02*
X76698610Y-31585771D01*
X76698610Y-31585771D02*
X76508134Y-31585771D01*
X76508134Y-31585771D02*
X76412896Y-31633390D01*
X76412896Y-31633390D02*
X76365277Y-31681009D01*
X76365277Y-31681009D02*
X76317658Y-31776247D01*
X63333333Y-29664819D02*
X63000000Y-29188628D01*
X62761905Y-29664819D02*
X62761905Y-28664819D01*
X62761905Y-28664819D02*
X63142857Y-28664819D01*
X63142857Y-28664819D02*
X63238095Y-28712438D01*
X63238095Y-28712438D02*
X63285714Y-28760057D01*
X63285714Y-28760057D02*
X63333333Y-28855295D01*
X63333333Y-28855295D02*
X63333333Y-28998152D01*
X63333333Y-28998152D02*
X63285714Y-29093390D01*
X63285714Y-29093390D02*
X63238095Y-29141009D01*
X63238095Y-29141009D02*
X63142857Y-29188628D01*
X63142857Y-29188628D02*
X62761905Y-29188628D01*
X63666667Y-28664819D02*
X64285714Y-28664819D01*
X64285714Y-28664819D02*
X63952381Y-29045771D01*
X63952381Y-29045771D02*
X64095238Y-29045771D01*
X64095238Y-29045771D02*
X64190476Y-29093390D01*
X64190476Y-29093390D02*
X64238095Y-29141009D01*
X64238095Y-29141009D02*
X64285714Y-29236247D01*
X64285714Y-29236247D02*
X64285714Y-29474342D01*
X64285714Y-29474342D02*
X64238095Y-29569580D01*
X64238095Y-29569580D02*
X64190476Y-29617200D01*
X64190476Y-29617200D02*
X64095238Y-29664819D01*
X64095238Y-29664819D02*
X63809524Y-29664819D01*
X63809524Y-29664819D02*
X63714286Y-29617200D01*
X63714286Y-29617200D02*
X63666667Y-29569580D01*
X75936705Y-37284819D02*
X75603372Y-36808628D01*
X75365277Y-37284819D02*
X75365277Y-36284819D01*
X75365277Y-36284819D02*
X75746229Y-36284819D01*
X75746229Y-36284819D02*
X75841467Y-36332438D01*
X75841467Y-36332438D02*
X75889086Y-36380057D01*
X75889086Y-36380057D02*
X75936705Y-36475295D01*
X75936705Y-36475295D02*
X75936705Y-36618152D01*
X75936705Y-36618152D02*
X75889086Y-36713390D01*
X75889086Y-36713390D02*
X75841467Y-36761009D01*
X75841467Y-36761009D02*
X75746229Y-36808628D01*
X75746229Y-36808628D02*
X75365277Y-36808628D01*
X76841467Y-36284819D02*
X76365277Y-36284819D01*
X76365277Y-36284819D02*
X76317658Y-36761009D01*
X76317658Y-36761009D02*
X76365277Y-36713390D01*
X76365277Y-36713390D02*
X76460515Y-36665771D01*
X76460515Y-36665771D02*
X76698610Y-36665771D01*
X76698610Y-36665771D02*
X76793848Y-36713390D01*
X76793848Y-36713390D02*
X76841467Y-36761009D01*
X76841467Y-36761009D02*
X76889086Y-36856247D01*
X76889086Y-36856247D02*
X76889086Y-37094342D01*
X76889086Y-37094342D02*
X76841467Y-37189580D01*
X76841467Y-37189580D02*
X76793848Y-37237200D01*
X76793848Y-37237200D02*
X76698610Y-37284819D01*
X76698610Y-37284819D02*
X76460515Y-37284819D01*
X76460515Y-37284819D02*
X76365277Y-37237200D01*
X76365277Y-37237200D02*
X76317658Y-37189580D01*
X75936705Y-34744819D02*
X75603372Y-34268628D01*
X75365277Y-34744819D02*
X75365277Y-33744819D01*
X75365277Y-33744819D02*
X75746229Y-33744819D01*
X75746229Y-33744819D02*
X75841467Y-33792438D01*
X75841467Y-33792438D02*
X75889086Y-33840057D01*
X75889086Y-33840057D02*
X75936705Y-33935295D01*
X75936705Y-33935295D02*
X75936705Y-34078152D01*
X75936705Y-34078152D02*
X75889086Y-34173390D01*
X75889086Y-34173390D02*
X75841467Y-34221009D01*
X75841467Y-34221009D02*
X75746229Y-34268628D01*
X75746229Y-34268628D02*
X75365277Y-34268628D01*
X76793848Y-34078152D02*
X76793848Y-34744819D01*
X76555753Y-33697200D02*
X76317658Y-34411485D01*
X76317658Y-34411485D02*
X76936705Y-34411485D01*
X95974819Y-36321904D02*
X96784342Y-36321904D01*
X96784342Y-36321904D02*
X96879580Y-36274285D01*
X96879580Y-36274285D02*
X96927200Y-36226666D01*
X96927200Y-36226666D02*
X96974819Y-36131428D01*
X96974819Y-36131428D02*
X96974819Y-35940952D01*
X96974819Y-35940952D02*
X96927200Y-35845714D01*
X96927200Y-35845714D02*
X96879580Y-35798095D01*
X96879580Y-35798095D02*
X96784342Y-35750476D01*
X96784342Y-35750476D02*
X95974819Y-35750476D01*
X96070057Y-35321904D02*
X96022438Y-35274285D01*
X96022438Y-35274285D02*
X95974819Y-35179047D01*
X95974819Y-35179047D02*
X95974819Y-34940952D01*
X95974819Y-34940952D02*
X96022438Y-34845714D01*
X96022438Y-34845714D02*
X96070057Y-34798095D01*
X96070057Y-34798095D02*
X96165295Y-34750476D01*
X96165295Y-34750476D02*
X96260533Y-34750476D01*
X96260533Y-34750476D02*
X96403390Y-34798095D01*
X96403390Y-34798095D02*
X96974819Y-35369523D01*
X96974819Y-35369523D02*
X96974819Y-34750476D01*
X73114819Y-40131904D02*
X73114819Y-39560476D01*
X74114819Y-39846190D02*
X73114819Y-39846190D01*
X73114819Y-39322380D02*
X74114819Y-38655714D01*
X73114819Y-38655714D02*
X74114819Y-39322380D01*
X52601905Y-30864819D02*
X52601905Y-29864819D01*
X52601905Y-29864819D02*
X52840000Y-29864819D01*
X52840000Y-29864819D02*
X52982857Y-29912438D01*
X52982857Y-29912438D02*
X53078095Y-30007676D01*
X53078095Y-30007676D02*
X53125714Y-30102914D01*
X53125714Y-30102914D02*
X53173333Y-30293390D01*
X53173333Y-30293390D02*
X53173333Y-30436247D01*
X53173333Y-30436247D02*
X53125714Y-30626723D01*
X53125714Y-30626723D02*
X53078095Y-30721961D01*
X53078095Y-30721961D02*
X52982857Y-30817200D01*
X52982857Y-30817200D02*
X52840000Y-30864819D01*
X52840000Y-30864819D02*
X52601905Y-30864819D01*
X54125714Y-30864819D02*
X53554286Y-30864819D01*
X53840000Y-30864819D02*
X53840000Y-29864819D01*
X53840000Y-29864819D02*
X53744762Y-30007676D01*
X53744762Y-30007676D02*
X53649524Y-30102914D01*
X53649524Y-30102914D02*
X53554286Y-30150533D01*
X60698095Y-28394819D02*
X60698095Y-27394819D01*
X61269523Y-28394819D02*
X60840952Y-27823390D01*
X61269523Y-27394819D02*
X60698095Y-27966247D01*
X74114819Y-35726666D02*
X73638628Y-36059999D01*
X74114819Y-36298094D02*
X73114819Y-36298094D01*
X73114819Y-36298094D02*
X73114819Y-35917142D01*
X73114819Y-35917142D02*
X73162438Y-35821904D01*
X73162438Y-35821904D02*
X73210057Y-35774285D01*
X73210057Y-35774285D02*
X73305295Y-35726666D01*
X73305295Y-35726666D02*
X73448152Y-35726666D01*
X73448152Y-35726666D02*
X73543390Y-35774285D01*
X73543390Y-35774285D02*
X73591009Y-35821904D01*
X73591009Y-35821904D02*
X73638628Y-35917142D01*
X73638628Y-35917142D02*
X73638628Y-36298094D01*
X73114819Y-35393332D02*
X74114819Y-34726666D01*
X73114819Y-34726666D02*
X74114819Y-35393332D01*
X74114819Y-28487619D02*
X73638628Y-28820952D01*
X74114819Y-29059047D02*
X73114819Y-29059047D01*
X73114819Y-29059047D02*
X73114819Y-28678095D01*
X73114819Y-28678095D02*
X73162438Y-28582857D01*
X73162438Y-28582857D02*
X73210057Y-28535238D01*
X73210057Y-28535238D02*
X73305295Y-28487619D01*
X73305295Y-28487619D02*
X73448152Y-28487619D01*
X73448152Y-28487619D02*
X73543390Y-28535238D01*
X73543390Y-28535238D02*
X73591009Y-28582857D01*
X73591009Y-28582857D02*
X73638628Y-28678095D01*
X73638628Y-28678095D02*
X73638628Y-29059047D01*
X74067200Y-28106666D02*
X74114819Y-27963809D01*
X74114819Y-27963809D02*
X74114819Y-27725714D01*
X74114819Y-27725714D02*
X74067200Y-27630476D01*
X74067200Y-27630476D02*
X74019580Y-27582857D01*
X74019580Y-27582857D02*
X73924342Y-27535238D01*
X73924342Y-27535238D02*
X73829104Y-27535238D01*
X73829104Y-27535238D02*
X73733866Y-27582857D01*
X73733866Y-27582857D02*
X73686247Y-27630476D01*
X73686247Y-27630476D02*
X73638628Y-27725714D01*
X73638628Y-27725714D02*
X73591009Y-27916190D01*
X73591009Y-27916190D02*
X73543390Y-28011428D01*
X73543390Y-28011428D02*
X73495771Y-28059047D01*
X73495771Y-28059047D02*
X73400533Y-28106666D01*
X73400533Y-28106666D02*
X73305295Y-28106666D01*
X73305295Y-28106666D02*
X73210057Y-28059047D01*
X73210057Y-28059047D02*
X73162438Y-28011428D01*
X73162438Y-28011428D02*
X73114819Y-27916190D01*
X73114819Y-27916190D02*
X73114819Y-27678095D01*
X73114819Y-27678095D02*
X73162438Y-27535238D01*
X73114819Y-27249523D02*
X73114819Y-26678095D01*
X74114819Y-26963809D02*
X73114819Y-26963809D01*
X63333333Y-27124819D02*
X63000000Y-26648628D01*
X62761905Y-27124819D02*
X62761905Y-26124819D01*
X62761905Y-26124819D02*
X63142857Y-26124819D01*
X63142857Y-26124819D02*
X63238095Y-26172438D01*
X63238095Y-26172438D02*
X63285714Y-26220057D01*
X63285714Y-26220057D02*
X63333333Y-26315295D01*
X63333333Y-26315295D02*
X63333333Y-26458152D01*
X63333333Y-26458152D02*
X63285714Y-26553390D01*
X63285714Y-26553390D02*
X63238095Y-26601009D01*
X63238095Y-26601009D02*
X63142857Y-26648628D01*
X63142857Y-26648628D02*
X62761905Y-26648628D01*
X63714286Y-26220057D02*
X63761905Y-26172438D01*
X63761905Y-26172438D02*
X63857143Y-26124819D01*
X63857143Y-26124819D02*
X64095238Y-26124819D01*
X64095238Y-26124819D02*
X64190476Y-26172438D01*
X64190476Y-26172438D02*
X64238095Y-26220057D01*
X64238095Y-26220057D02*
X64285714Y-26315295D01*
X64285714Y-26315295D02*
X64285714Y-26410533D01*
X64285714Y-26410533D02*
X64238095Y-26553390D01*
X64238095Y-26553390D02*
X63666667Y-27124819D01*
X63666667Y-27124819D02*
X64285714Y-27124819D01*
X47079819Y-39703333D02*
X47794104Y-39703333D01*
X47794104Y-39703333D02*
X47936961Y-39750952D01*
X47936961Y-39750952D02*
X48032200Y-39846190D01*
X48032200Y-39846190D02*
X48079819Y-39989047D01*
X48079819Y-39989047D02*
X48079819Y-40084285D01*
X48079819Y-38703333D02*
X48079819Y-39274761D01*
X48079819Y-38989047D02*
X47079819Y-38989047D01*
X47079819Y-38989047D02*
X47222676Y-39084285D01*
X47222676Y-39084285D02*
X47317914Y-39179523D01*
X47317914Y-39179523D02*
X47365533Y-39274761D01*
X61468095Y-41364819D02*
X61468095Y-42174342D01*
X61468095Y-42174342D02*
X61515714Y-42269580D01*
X61515714Y-42269580D02*
X61563333Y-42317200D01*
X61563333Y-42317200D02*
X61658571Y-42364819D01*
X61658571Y-42364819D02*
X61849047Y-42364819D01*
X61849047Y-42364819D02*
X61944285Y-42317200D01*
X61944285Y-42317200D02*
X61991904Y-42269580D01*
X61991904Y-42269580D02*
X62039523Y-42174342D01*
X62039523Y-42174342D02*
X62039523Y-41364819D01*
X63039523Y-42364819D02*
X62468095Y-42364819D01*
X62753809Y-42364819D02*
X62753809Y-41364819D01*
X62753809Y-41364819D02*
X62658571Y-41507676D01*
X62658571Y-41507676D02*
X62563333Y-41602914D01*
X62563333Y-41602914D02*
X62468095Y-41650533D01*
X76033333Y-42364819D02*
X75700000Y-41888628D01*
X75461905Y-42364819D02*
X75461905Y-41364819D01*
X75461905Y-41364819D02*
X75842857Y-41364819D01*
X75842857Y-41364819D02*
X75938095Y-41412438D01*
X75938095Y-41412438D02*
X75985714Y-41460057D01*
X75985714Y-41460057D02*
X76033333Y-41555295D01*
X76033333Y-41555295D02*
X76033333Y-41698152D01*
X76033333Y-41698152D02*
X75985714Y-41793390D01*
X75985714Y-41793390D02*
X75938095Y-41841009D01*
X75938095Y-41841009D02*
X75842857Y-41888628D01*
X75842857Y-41888628D02*
X75461905Y-41888628D01*
X76604762Y-41793390D02*
X76509524Y-41745771D01*
X76509524Y-41745771D02*
X76461905Y-41698152D01*
X76461905Y-41698152D02*
X76414286Y-41602914D01*
X76414286Y-41602914D02*
X76414286Y-41555295D01*
X76414286Y-41555295D02*
X76461905Y-41460057D01*
X76461905Y-41460057D02*
X76509524Y-41412438D01*
X76509524Y-41412438D02*
X76604762Y-41364819D01*
X76604762Y-41364819D02*
X76795238Y-41364819D01*
X76795238Y-41364819D02*
X76890476Y-41412438D01*
X76890476Y-41412438D02*
X76938095Y-41460057D01*
X76938095Y-41460057D02*
X76985714Y-41555295D01*
X76985714Y-41555295D02*
X76985714Y-41602914D01*
X76985714Y-41602914D02*
X76938095Y-41698152D01*
X76938095Y-41698152D02*
X76890476Y-41745771D01*
X76890476Y-41745771D02*
X76795238Y-41793390D01*
X76795238Y-41793390D02*
X76604762Y-41793390D01*
X76604762Y-41793390D02*
X76509524Y-41841009D01*
X76509524Y-41841009D02*
X76461905Y-41888628D01*
X76461905Y-41888628D02*
X76414286Y-41983866D01*
X76414286Y-41983866D02*
X76414286Y-42174342D01*
X76414286Y-42174342D02*
X76461905Y-42269580D01*
X76461905Y-42269580D02*
X76509524Y-42317200D01*
X76509524Y-42317200D02*
X76604762Y-42364819D01*
X76604762Y-42364819D02*
X76795238Y-42364819D01*
X76795238Y-42364819D02*
X76890476Y-42317200D01*
X76890476Y-42317200D02*
X76938095Y-42269580D01*
X76938095Y-42269580D02*
X76985714Y-42174342D01*
X76985714Y-42174342D02*
X76985714Y-41983866D01*
X76985714Y-41983866D02*
X76938095Y-41888628D01*
X76938095Y-41888628D02*
X76890476Y-41841009D01*
X76890476Y-41841009D02*
X76795238Y-41793390D01*
X76033333Y-44904819D02*
X75700000Y-44428628D01*
X75461905Y-44904819D02*
X75461905Y-43904819D01*
X75461905Y-43904819D02*
X75842857Y-43904819D01*
X75842857Y-43904819D02*
X75938095Y-43952438D01*
X75938095Y-43952438D02*
X75985714Y-44000057D01*
X75985714Y-44000057D02*
X76033333Y-44095295D01*
X76033333Y-44095295D02*
X76033333Y-44238152D01*
X76033333Y-44238152D02*
X75985714Y-44333390D01*
X75985714Y-44333390D02*
X75938095Y-44381009D01*
X75938095Y-44381009D02*
X75842857Y-44428628D01*
X75842857Y-44428628D02*
X75461905Y-44428628D01*
X76985714Y-44904819D02*
X76414286Y-44904819D01*
X76700000Y-44904819D02*
X76700000Y-43904819D01*
X76700000Y-43904819D02*
X76604762Y-44047676D01*
X76604762Y-44047676D02*
X76509524Y-44142914D01*
X76509524Y-44142914D02*
X76414286Y-44190533D01*
D11*
%TO.C,R7*%
X79782936Y-38635000D02*
X80237064Y-38635000D01*
X79782936Y-40105000D02*
X80237064Y-40105000D01*
%TO.C,T2*%
X72705000Y-31750000D02*
G75*
G03*
X72705000Y-31750000I-950000J0D01*
G01*
D12*
%TO.C,A1*%
X20020000Y-44060000D02*
X46020000Y-44060000D01*
X46020000Y-44060000D02*
X46020000Y-27060000D01*
X20020000Y-27060000D02*
X20020000Y-44060000D01*
X46020000Y-27060000D02*
X20020000Y-27060000D01*
D11*
%TO.C,C1*%
X72128748Y-43715000D02*
X72651252Y-43715000D01*
X72128748Y-45185000D02*
X72651252Y-45185000D01*
%TO.C,C2*%
X79298748Y-28300000D02*
X80721252Y-28300000D01*
X79298748Y-30120000D02*
X80721252Y-30120000D01*
%TO.C,R6*%
X79782936Y-31015000D02*
X80237064Y-31015000D01*
X79782936Y-32485000D02*
X80237064Y-32485000D01*
%TO.C,R3*%
X67082936Y-28475000D02*
X67537064Y-28475000D01*
X67082936Y-29945000D02*
X67537064Y-29945000D01*
%TO.C,R5*%
X79782936Y-36095000D02*
X80237064Y-36095000D01*
X79782936Y-37565000D02*
X80237064Y-37565000D01*
%TO.C,R4*%
X79782936Y-33555000D02*
X80237064Y-33555000D01*
X79782936Y-35025000D02*
X80237064Y-35025000D01*
%TO.C,U2*%
X108640000Y-27440000D02*
X108640000Y-43680000D01*
X101020000Y-27440000D02*
X101020000Y-26830000D01*
X101020000Y-27440000D02*
X108640000Y-27440000D01*
X84400000Y-27440000D02*
X85020000Y-27440000D01*
X84400000Y-29560000D02*
X84400000Y-27440000D01*
X108640000Y-43680000D02*
X101020000Y-43680000D01*
X85020000Y-43680000D02*
X84400000Y-43680000D01*
X84400000Y-43680000D02*
X84400000Y-41560000D01*
%TO.C,T4*%
X72705000Y-39370000D02*
G75*
G03*
X72705000Y-39370000I-950000J0D01*
G01*
%TO.C,D1*%
X57080000Y-27940000D02*
X56060000Y-27940000D01*
X56060000Y-29410000D02*
X56060000Y-26470000D01*
X56060000Y-26470000D02*
X50620000Y-26470000D01*
X55280000Y-29410000D02*
X55280000Y-26470000D01*
X55160000Y-29410000D02*
X55160000Y-26470000D01*
X55040000Y-29410000D02*
X55040000Y-26470000D01*
X50620000Y-29410000D02*
X56060000Y-29410000D01*
X50620000Y-26470000D02*
X50620000Y-29410000D01*
X49600000Y-27940000D02*
X50620000Y-27940000D01*
%TO.C,T3*%
X72705000Y-35560000D02*
G75*
G03*
X72705000Y-35560000I-950000J0D01*
G01*
%TO.C,T1*%
X72705000Y-27940000D02*
G75*
G03*
X72705000Y-27940000I-950000J0D01*
G01*
%TO.C,R2*%
X67082936Y-25935000D02*
X67537064Y-25935000D01*
X67082936Y-27405000D02*
X67537064Y-27405000D01*
D10*
%TO.C,J1*%
X48025000Y-33260000D02*
X48525000Y-33760000D01*
X47225000Y-33260000D02*
X48025000Y-33260000D01*
X48525000Y-33760000D02*
X48525000Y-37360000D01*
X46725000Y-33760000D02*
X47225000Y-33260000D01*
X48525000Y-37360000D02*
X48025000Y-37860000D01*
X46725000Y-37360000D02*
X46725000Y-33760000D01*
X48025000Y-37860000D02*
X47225000Y-37860000D01*
X47225000Y-37860000D02*
X46725000Y-37360000D01*
D11*
%TO.C,U1*%
X70470000Y-44510000D02*
X70470000Y-42510000D01*
X70470000Y-44510000D02*
X68860000Y-44510000D01*
X70190000Y-31970000D02*
X70190000Y-44220000D01*
X70180000Y-44230000D02*
X64440000Y-44230000D01*
X64430000Y-44230000D02*
X64430000Y-31970000D01*
X64430000Y-31970000D02*
X70190000Y-31970000D01*
%TO.C,R8*%
X80237064Y-42645000D02*
X79782936Y-42645000D01*
X80237064Y-41175000D02*
X79782936Y-41175000D01*
%TO.C,R1*%
X79782936Y-43715000D02*
X80237064Y-43715000D01*
X79782936Y-45185000D02*
X80237064Y-45185000D01*
%TD*%
M02*
